<?xml version="1.0" standalone="no"?>
<!DOCTYPE svg PUBLIC "-//W3C//DTD SVG 20010904//EN"
 "http://www.w3.org/TR/2001/REC-SVG-20010904/DTD/svg10.dtd">
<svg version="1.0" xmlns="http://www.w3.org/2000/svg"
 width="1200.000000pt" height="602.000000pt" viewBox="0 0 1200.000000 602.000000"
 preserveAspectRatio="xMidYMid meet">
<metadata>
Created by potrace 1.16, written by Peter Selinger 2001-2019
</metadata>
<g transform="translate(0.000000,602.000000) scale(0.100000,-0.100000)"
fill="#000000" stroke="none">
<path d="M6601 5161 c-23 -18 -23 -19 -5 -29 17 -10 17 -11 -8 -12 -41 0 -41
-15 0 -35 l37 -18 -38 -7 c-21 -4 -50 -17 -65 -29 -15 -12 -38 -27 -52 -34
-14 -6 -35 -22 -46 -34 -12 -13 -26 -23 -33 -23 -6 0 -11 -6 -11 -12 0 -18
-44 -58 -63 -58 -9 0 -19 -5 -22 -11 -5 -7 -13 -5 -25 6 -32 29 -106 -2 -85
-34 2 -4 -11 -13 -30 -18 -21 -7 -37 -7 -41 -2 -3 5 0 9 7 9 7 0 10 2 7 5 -8
9 -38 -6 -32 -16 3 -5 -2 -12 -11 -15 -9 -4 -14 -13 -11 -20 3 -8 -1 -14 -8
-14 -7 0 -26 -10 -41 -22 -15 -11 -43 -27 -64 -34 -20 -7 -35 -18 -33 -24 1
-6 -2 -9 -8 -5 -5 3 -10 2 -10 -4 0 -6 -6 -8 -14 -5 -9 3 -14 0 -12 -8 3 -24
18 -39 32 -34 8 3 11 0 8 -9 -4 -9 3 -16 18 -19 12 -3 32 -7 43 -9 11 -3 -8
-5 -43 -6 -54 -1 -62 -3 -60 -18 2 -12 -4 -19 -19 -21 -26 -4 -29 -12 -10 -31
10 -11 9 -13 -5 -8 -10 4 -18 2 -18 -3 0 -5 -7 -7 -15 -4 -9 4 -15 0 -15 -10
0 -9 -5 -16 -10 -16 -9 0 -8 38 0 60 1 3 2 9 1 14 -1 4 4 14 10 22 6 8 9 14 5
14 -4 0 1 15 11 33 9 17 16 35 15 40 -1 4 6 7 16 7 14 0 15 2 2 10 -10 6 -11
10 -3 10 7 0 12 3 11 8 -1 4 7 26 18 50 12 28 24 40 33 37 12 -5 12 -3 0 11
-8 10 -13 37 -12 69 1 46 -1 54 -23 66 -23 12 -24 14 -7 20 10 4 -4 5 -32 2
-27 -4 -56 -12 -63 -20 -8 -8 -9 -13 -3 -13 6 0 11 -7 11 -15 0 -8 5 -15 11
-15 8 0 9 -4 0 -13 -6 -8 -7 -17 -3 -22 4 -4 -10 -4 -32 -1 -44 8 -107 -11
-84 -25 10 -7 9 -9 -3 -9 -18 0 -66 -90 -72 -134 -2 -15 -9 -31 -16 -36 -8 -4
-11 -12 -7 -18 5 -8 -33 -26 -41 -19 -1 2 -4 20 -5 40 -2 21 -8 37 -13 37 -6
0 -11 -3 -11 -7 -5 -26 -18 -53 -25 -53 -5 0 -9 -6 -9 -13 0 -7 -7 -22 -16
-33 -8 -10 -13 -13 -9 -6 8 15 0 15 -26 1 -23 -12 -16 -31 9 -22 15 6 15 4 -2
-15 -11 -12 -25 -22 -31 -22 -7 0 -20 -15 -28 -33 -9 -18 -27 -50 -42 -71 -24
-35 -31 -65 -39 -166 -2 -19 -10 -48 -19 -65 -9 -16 -17 -39 -17 -50 0 -12 -4
-25 -9 -30 -18 -18 -33 -145 -20 -161 7 -8 12 -28 11 -45 0 -16 4 -27 9 -24 5
4 9 -1 9 -9 0 -9 7 -16 15 -16 11 0 14 -7 10 -22 -3 -13 1 -32 9 -43 10 -13
15 -15 16 -6 0 31 30 -13 30 -45 0 -24 5 -34 15 -34 8 0 15 8 15 18 0 14 2 15
10 2 6 -10 10 -11 10 -2 0 20 16 14 30 -13 15 -28 35 -34 26 -7 -4 10 2 7 14
-8 11 -14 20 -28 20 -32 0 -4 6 -5 13 -3 7 3 19 -13 30 -42 11 -27 22 -57 27
-68 4 -11 12 -47 17 -80 6 -45 12 -61 26 -63 11 -2 17 3 17 16 0 11 3 22 8 24
4 2 15 20 24 41 20 42 40 47 67 15 86 -101 101 -124 101 -155 0 -20 5 -33 13
-33 7 0 4 -7 -7 -15 -14 -10 -15 -15 -6 -15 11 0 11 -3 2 -12 -21 -21 -13 -28
29 -23 27 4 38 2 34 -5 -5 -7 11 -9 48 -5 43 5 56 3 60 -9 6 -15 -21 -38 -40
-35 -4 1 -27 1 -49 0 -39 -1 -42 -3 -46 -32 -3 -18 -2 -46 3 -63 4 -17 7 -25
8 -18 2 20 21 13 21 -8 0 -11 -6 -20 -12 -20 -7 0 -18 -12 -25 -26 -12 -25
-12 -25 10 -9 12 8 30 18 40 22 9 3 17 14 17 24 0 11 5 19 10 19 6 0 10 7 10
16 0 8 16 22 36 30 40 17 58 12 25 -6 -30 -16 -27 -32 5 -20 32 13 81 13 88 1
10 -15 -4 -38 -30 -49 -29 -14 -32 -32 -4 -32 11 0 20 5 20 10 0 6 6 10 14 10
7 0 24 9 38 19 13 11 46 22 73 26 l50 7 -35 -31 c-68 -61 -141 -81 -260 -71
-8 0 -28 -2 -45 -5 -23 -5 -26 -4 -15 4 20 14 4 14 -23 0 l-21 -12 22 -8 c25
-9 31 -49 7 -49 -8 0 -15 -5 -15 -11 0 -5 -5 -7 -12 -3 -7 4 -8 3 -4 -5 4 -6
20 -10 34 -9 21 2 27 -1 26 -14 -2 -22 19 -23 36 -3 7 8 17 15 22 15 6 0 31
15 57 33 69 50 94 56 52 13 -19 -20 -31 -36 -25 -36 5 0 0 -6 -11 -12 -19 -12
-19 -12 5 -19 l25 -7 -25 -1 c-34 -1 -70 -28 -70 -52 0 -10 4 -19 9 -19 14 0
0 -48 -20 -66 -10 -9 -19 -13 -19 -8 0 5 -13 -6 -30 -24 -35 -38 -39 -56 -10
-47 17 5 20 2 20 -24 0 -16 4 -32 9 -36 13 -7 31 27 31 57 0 27 53 135 58 119
8 -23 22 -10 22 19 0 20 10 41 30 62 34 35 36 40 15 32 -34 -13 0 27 66 78 19
14 52 43 74 63 58 52 70 58 86 38 12 -14 11 -15 -7 -9 -14 4 -27 -1 -44 -19
-13 -14 -19 -25 -13 -25 6 0 16 7 23 15 7 8 17 15 23 15 12 0 -133 -142 -170
-167 -25 -16 -31 -36 -10 -27 9 3 12 -6 9 -37 -3 -26 -1 -39 6 -35 5 3 13 -10
16 -30 5 -24 14 -38 32 -44 35 -14 29 -22 -11 -16 -35 6 -49 -9 -19 -21 11 -4
13 -13 8 -36 -4 -20 -3 -27 5 -23 8 5 7 -1 -1 -20 l-12 -27 -9 34 c-4 19 -15
48 -23 64 l-15 30 6 -35 c19 -106 19 -104 2 -97 -14 5 -17 -1 -17 -43 0 -49
12 -66 24 -33 8 19 22 8 29 -22 5 -19 5 -19 12 3 4 12 11 22 15 22 11 0 -1
-54 -14 -62 -21 -14 13 -31 59 -30 27 1 45 -2 45 -9 0 -6 6 -9 14 -6 7 3 23
-1 35 -9 19 -14 22 -14 27 0 3 8 2 21 -2 28 -4 7 2 5 12 -5 16 -15 17 -19 4
-27 -12 -8 -11 -12 9 -31 18 -17 20 -23 9 -30 -19 -12 -28 -11 -28 4 0 8 -15
14 -42 16 -24 1 -44 6 -46 11 -8 22 -112 -16 -112 -39 0 -10 -19 -26 -46 -39
-54 -27 -54 -36 0 -21 43 12 60 4 33 -15 -25 -19 -21 -26 12 -16 23 6 29 5 25
-5 -4 -10 1 -12 15 -8 11 3 28 2 37 -1 15 -6 15 -8 -2 -28 -19 -21 -19 -21 7
-16 14 2 31 -1 38 -9 8 -9 24 -12 46 -7 20 3 35 1 40 -5 3 -7 1 -10 -6 -9 -7
2 -15 -8 -19 -22 -3 -14 -14 -26 -24 -28 -14 -3 -17 1 -12 16 4 11 3 23 -2 26
-6 3 -12 -3 -15 -14 -3 -12 -11 -18 -19 -15 -7 3 -19 -4 -26 -15 -7 -12 -8
-20 -2 -20 5 0 10 5 10 10 0 6 4 10 9 10 8 0 19 -25 25 -55 1 -5 6 -18 10 -27
8 -17 -20 -78 -35 -78 -4 0 -5 -9 -2 -20 3 -11 0 -20 -6 -20 -6 0 -11 5 -11
11 0 7 -11 9 -27 5 -26 -5 -27 -5 -5 6 25 13 29 28 7 28 -18 0 -9 29 14 48 14
11 12 12 -13 6 -22 -5 -27 -4 -21 6 6 9 4 11 -4 6 -7 -5 -10 -10 -7 -13 3 -3
-2 -12 -10 -21 -9 -8 -13 -23 -11 -33 3 -12 0 -19 -8 -19 -7 0 -22 -3 -32 -6
-15 -5 -15 -4 -3 5 26 18 2 24 -37 9 -28 -11 -37 -20 -36 -35 1 -11 -9 -31
-22 -43 -14 -13 -25 -29 -25 -37 0 -7 -7 -13 -16 -13 -9 0 -18 -9 -21 -21 -5
-18 -11 -20 -40 -16 -19 3 -46 2 -60 -4 -21 -8 -23 -12 -13 -25 9 -10 16 -12
24 -4 15 15 30 12 17 -4 -6 -7 -29 -16 -51 -20 -31 -5 -38 -10 -37 -26 1 -23
10 -25 29 -8 7 7 28 18 46 25 l32 11 -20 -25 c-24 -31 -26 -47 -5 -39 10 4 19
-2 24 -16 5 -14 10 -17 15 -10 12 20 28 13 21 -8 -4 -11 -2 -20 4 -20 6 0 11
12 11 27 0 28 0 28 18 -7 22 -40 48 -55 37 -20 -5 15 -4 20 4 16 6 -4 11 -14
11 -23 0 -8 9 -27 20 -43 11 -15 17 -30 14 -33 -7 -6 18 -127 26 -127 9 0 -6
121 -19 155 -7 16 -9 41 -5 55 6 22 9 18 20 -30 7 -30 17 -73 23 -95 6 -22 8
-60 5 -84 -6 -41 -5 -43 15 -36 18 5 21 2 21 -24 0 -17 5 -31 10 -31 6 0 10
12 10 28 1 27 1 27 15 -7 8 -18 15 -47 16 -65 0 -27 2 -28 10 -11 7 16 9 14 6
-12 -2 -18 0 -30 5 -27 4 3 7 -12 7 -33 -1 -21 3 -49 9 -63 11 -29 4 -218 -9
-226 -15 -9 -10 -34 6 -34 17 0 20 -16 4 -25 -6 -4 -8 -14 -5 -22 3 -8 -1 -24
-9 -37 -8 -12 -13 -25 -10 -28 3 -3 8 -34 11 -69 3 -35 7 -76 9 -91 1 -16 3
-36 4 -47 0 -10 10 -21 22 -24 14 -4 20 -12 17 -28 -2 -12 2 -24 8 -26 16 -5
34 41 28 73 -4 23 -2 26 16 21 17 -4 20 -2 16 11 -5 14 -4 14 8 -1 13 -17 15
-16 21 12 6 29 25 44 25 20 0 -6 7 -9 15 -5 9 3 15 -1 15 -11 0 -12 3 -13 14
-4 8 7 22 11 31 9 11 -2 24 10 37 32 l20 35 -4 -33 c-3 -22 0 -32 9 -32 8 0
13 -12 13 -31 0 -27 3 -30 23 -23 12 3 26 13 30 21 5 7 12 11 17 8 5 -3 15 14
21 37 14 47 29 72 29 46 0 -9 9 -19 19 -23 14 -4 31 6 64 40 25 25 50 45 56
45 16 0 14 -8 -11 -35 -37 -40 -48 -54 -48 -64 0 -5 -4 -11 -10 -13 -6 -2 -5
-17 2 -41 13 -42 31 -44 36 -4 4 30 17 35 26 11 4 -10 12 -14 22 -10 12 4 15
2 10 -9 -3 -9 0 -15 9 -15 22 0 24 12 16 73 -4 32 -4 60 1 63 4 3 8 -3 8 -13
0 -10 5 -25 11 -33 8 -11 9 -2 5 34 -3 27 -14 58 -23 68 -9 10 -13 21 -10 25
4 3 7 1 7 -5 0 -7 5 -12 11 -12 5 0 9 8 8 17 -1 10 0 45 1 78 1 53 3 57 11 30
5 -16 12 -43 15 -60 10 -60 48 -190 56 -193 4 -2 8 -15 8 -28 0 -13 4 -24 9
-24 5 0 17 -3 27 -7 15 -6 16 -1 10 38 -7 42 -6 43 9 24 9 -11 14 -14 10 -8
-4 8 -1 11 8 7 8 -3 17 -14 20 -25 8 -30 27 -22 27 12 0 19 4 28 11 23 6 -4 8
-20 4 -40 -3 -19 -2 -34 3 -34 5 0 7 -11 4 -25 -2 -14 0 -25 6 -25 16 0 26 21
27 55 1 16 3 53 4 80 l3 50 10 -40 c6 -22 16 -43 22 -47 6 -4 10 -20 8 -36 -2
-18 4 -34 17 -47 21 -18 21 -18 21 4 l0 22 22 -21 c15 -13 24 -16 29 -9 5 8 8
8 13 0 11 -17 26 -13 26 8 0 11 4 21 8 23 5 1 12 17 16 33 7 30 7 30 -9 8 -9
-13 -25 -28 -36 -33 -17 -9 -18 -8 -15 12 3 13 5 29 5 36 1 7 5 11 10 7 17
-10 24 16 26 92 2 41 8 80 13 85 14 14 4 38 -13 32 -10 -4 -12 2 -9 23 3 15 6
44 7 64 2 20 8 43 15 52 10 12 9 15 -7 20 -15 3 -17 0 -14 -17 5 -19 3 -18
-13 4 -9 14 -19 27 -21 29 -2 3 -17 -5 -33 -18 -37 -27 -40 -10 -10 46 22 41
25 68 10 78 -5 3 -10 16 -10 27 0 21 0 21 -25 -2 -30 -28 -34 -13 -5 20 11 13
20 27 20 32 0 4 5 8 10 8 6 0 10 -7 10 -15 0 -20 7 -19 37 5 34 27 43 18 38
-38 -3 -38 -2 -43 7 -28 6 11 11 32 10 48 0 15 4 28 9 28 5 0 9 4 9 10 0 5 -6
7 -14 4 -22 -9 -28 13 -11 40 18 28 11 51 -12 41 -13 -4 -15 1 -9 36 4 23 14
55 22 71 9 17 13 39 11 50 -4 13 3 28 19 43 23 22 32 38 16 32 -4 -1 -8 3 -9
8 -1 6 5 9 13 9 15 -2 31 42 20 53 -3 4 -6 -5 -6 -18 -1 -22 -1 -23 -12 -5 -8
15 -7 22 4 30 9 6 18 20 21 31 3 15 5 12 7 -10 1 -16 5 -39 9 -50 6 -15 10 -9
15 30 9 61 23 80 43 64 18 -16 29 -3 14 15 -14 16 -7 67 12 97 8 13 7 21 -1
32 -7 8 -10 22 -6 31 7 18 -20 23 -31 6 -3 -5 -13 -6 -21 -3 -10 4 -17 -2 -21
-16 -6 -22 -27 -28 -38 -10 -4 6 -13 8 -21 5 -8 -3 -14 -1 -14 4 0 6 -5 10
-11 10 -8 0 -7 -5 2 -16 10 -13 10 -17 -2 -24 -8 -6 -15 -6 -17 0 -2 6 -11 6
-24 -1 -15 -8 -23 -8 -31 0 -9 9 -6 13 10 17 13 4 23 17 27 36 5 25 9 28 28
23 21 -6 21 -6 8 8 -12 12 -25 14 -58 8 -25 -5 -45 -5 -48 1 -3 5 -16 14 -28
19 -19 9 -19 9 4 3 14 -3 39 -5 55 -4 17 1 36 2 43 3 21 1 7 20 -16 22 -13 1
-28 7 -35 14 -9 10 -7 12 13 10 14 -2 30 0 37 4 7 4 23 -4 39 -18 15 -14 30
-22 33 -17 3 5 14 11 24 15 9 3 17 11 17 16 0 14 -36 32 -45 23 -5 -4 -5 -1
-1 5 4 7 3 21 -3 30 -12 22 -102 27 -94 6 10 -26 -18 -12 -29 15 -16 35 -46
65 -58 57 -6 -3 -10 -2 -10 4 0 19 21 23 39 7 24 -22 58 -20 64 3 3 14 1 18
-9 14 -8 -3 -21 0 -29 7 -12 10 -15 10 -15 -1 -1 -9 -5 -8 -15 5 -19 25 -19
40 0 33 24 -10 30 54 8 100 -16 33 -18 35 -21 16 -3 -19 -10 -23 -42 -23 -21
0 -41 4 -45 9 -3 6 -17 6 -35 -1 -32 -11 -38 -23 -17 -31 7 -3 5 -6 -6 -6 -10
-1 -20 6 -23 14 -4 9 -19 15 -36 15 -18 0 -27 -4 -23 -11 4 -6 13 -8 20 -5 15
5 42 -21 32 -30 -3 -4 -24 3 -45 14 -22 11 -52 22 -68 24 -16 1 -32 7 -36 13
-11 15 -20 -2 -13 -24 6 -20 29 -26 90 -23 11 0 14 -2 7 -4 -6 -3 -10 -10 -6
-15 8 -13 -10 -11 -24 3 -6 6 -15 8 -19 4 -4 -4 -1 -11 6 -16 8 -4 11 -15 8
-23 -3 -8 -1 -19 4 -24 6 -6 -8 -29 -41 -63 -50 -53 -69 -89 -27 -54 12 10 25
24 29 29 5 6 8 5 8 -3 0 -6 -12 -22 -27 -35 -59 -50 -75 -67 -64 -67 7 0 9
-10 6 -27 -5 -27 -5 -27 6 -5 13 24 24 28 34 12 4 -6 11 -8 16 -5 17 11 9 -7
-16 -37 -14 -16 -25 -38 -25 -49 0 -10 -5 -19 -11 -19 -5 0 -8 -4 -5 -9 3 -5
-3 -11 -14 -14 -14 -4 -20 0 -20 11 0 14 -2 14 -9 3 -6 -9 -9 6 -9 45 1 32 0
74 -2 92 -3 30 -4 31 -20 17 -9 -8 -20 -15 -25 -15 -5 0 1 10 14 21 14 13 21
29 18 40 -3 11 -1 17 4 13 5 -3 9 4 9 14 0 11 7 23 16 26 8 3 13 10 10 15 -5
8 2 39 19 86 7 19 7 19 -7 1 -20 -25 -29 -8 -19 35 4 18 6 51 3 72 -4 34 -12
42 -36 38 -4 -1 -14 4 -22 10 -23 19 -26 5 -4 -19 12 -13 16 -23 9 -27 -5 -4
-19 4 -30 17 -55 66 -61 70 -74 52 -13 -19 1 -64 21 -64 7 0 14 -10 17 -22 8
-29 1 -36 -8 -9 -3 12 -15 21 -25 21 -10 0 -26 10 -35 23 -8 12 -18 21 -20 20
-13 -7 -45 -2 -45 7 0 6 9 10 20 10 11 0 20 7 20 15 0 8 -4 15 -10 15 -5 0
-10 5 -10 10 0 6 7 10 16 10 13 0 12 5 -5 29 -12 16 -21 34 -21 40 0 6 -9 16
-20 23 -11 7 -20 19 -20 25 0 14 26 3 63 -26 28 -23 20 -1 -10 27 -16 14 -29
31 -29 36 -1 6 -2 17 -3 24 0 6 -6 11 -12 10 -6 -2 -14 3 -16 10 -3 7 3 12 14
12 13 0 7 10 -26 40 -42 38 -71 51 -71 31 0 -6 14 -23 31 -39 18 -16 29 -35
25 -41 -10 -15 -26 -14 -26 2 0 7 -13 23 -30 37 -16 14 -30 30 -30 37 0 17
-27 17 -33 1 -4 -10 -6 -10 -6 0 -1 6 -7 12 -13 12 -7 0 -26 12 -43 26 -20 17
-36 23 -52 19 -26 -6 -43 19 -26 36 17 17 2 58 -33 93 -34 34 -50 71 -19 46
13 -11 15 -8 15 14 0 14 5 26 11 26 6 0 8 7 5 16 -3 8 -2 12 4 9 12 -8 43 21
36 33 -3 5 8 8 24 7 17 -1 28 0 25 3 -9 9 27 42 38 35 5 -3 35 20 65 53 30 32
51 52 46 44 -30 -52 -63 -90 -110 -130 l-54 -44 0 -78 c0 -45 4 -78 10 -78 6
0 10 21 10 48 0 51 37 129 59 124 13 -2 72 61 83 89 11 30 25 22 24 -13 -1
-26 -10 -38 -48 -66 -27 -19 -48 -38 -48 -43 0 -14 18 -11 23 4 2 6 8 9 12 5
4 -4 0 -14 -9 -23 -20 -21 -21 -59 -1 -75 13 -11 15 -8 15 18 0 34 39 129 40
97 0 -16 2 -17 10 -5 5 8 11 12 15 9 3 -3 -4 -18 -16 -32 -11 -15 -16 -27 -10
-27 6 0 10 -17 9 -40 -2 -51 9 -61 33 -31 25 31 31 24 18 -22 -8 -30 -7 -40 4
-52 8 -8 17 -11 21 -8 3 3 9 -8 12 -25 6 -31 44 -54 44 -26 0 8 -7 14 -15 14
-16 0 -21 35 -6 45 5 3 16 -2 25 -11 10 -9 24 -13 36 -9 14 4 20 2 20 -8 0 -8
7 -18 16 -21 24 -9 27 -8 21 14 -3 11 -2 22 2 25 5 2 4 30 -1 61 -11 71 -4 95
10 34 l10 -45 2 65 c1 68 12 111 23 94 3 -6 2 -29 -3 -51 -7 -31 -6 -50 6 -78
8 -21 18 -34 21 -31 4 3 0 17 -7 31 -7 14 -10 28 -7 32 4 3 7 -1 7 -9 0 -9 6
-18 13 -21 9 -3 11 10 8 52 -3 46 -6 52 -12 31 l-9 -25 5 25 c13 74 39 170 47
170 12 0 10 -20 -8 -71 -17 -47 -12 -99 6 -70 6 11 9 8 13 -10 2 -13 4 5 4 41
-1 92 13 171 35 194 10 11 18 24 18 29 0 4 7 16 16 24 13 14 17 14 25 2 8 -12
11 -11 20 4 14 24 28 21 21 -5 -5 -21 -5 -21 15 -2 11 10 18 22 16 26 -2 3 3
8 9 11 7 2 1 8 -14 12 -38 10 -36 28 2 23 l30 -5 -32 28 c-26 21 -30 30 -21
39 6 7 9 18 6 26 -2 7 0 21 6 31 10 17 10 16 11 -3 0 -12 7 -35 15 -50 l15
-29 -3 38 c-3 20 -1 37 4 37 4 0 11 17 14 38 17 95 25 113 48 107 19 -5 20 -5
5 5 -38 23 -15 30 100 30 120 0 243 19 250 38 2 6 10 8 19 5 10 -4 14 -2 10 4
-4 6 0 18 8 26 8 9 15 27 15 40 0 16 7 26 19 30 18 4 51 58 51 84 0 7 7 13 15
13 16 0 20 36 6 58 -7 11 -9 11 -14 -2 -5 -13 -11 -14 -34 -5 -15 6 -31 16
-35 22 -5 8 -8 6 -8 -6 0 -15 -3 -16 -22 -6 -13 7 -33 22 -46 35 -13 12 -30
20 -38 17 -20 -7 -18 7 3 23 17 11 16 14 -10 38 -15 14 -27 28 -27 31 0 14 38
2 63 -21 27 -25 29 -25 42 -8 19 24 18 33 0 40 -8 4 -23 23 -32 43 -9 20 -23
44 -31 54 -9 10 -11 17 -4 17 6 0 15 -8 21 -17 18 -32 20 -8 4 41 -15 44 -15
50 -1 60 12 9 14 16 6 30 -8 14 -6 19 11 23 17 4 19 8 10 19 -9 11 -8 15 4 20
13 5 32 56 28 77 0 4 5 7 12 7 19 0 42 -18 42 -32 0 -7 8 -12 17 -10 27 4 29
-12 7 -77 -11 -34 -17 -66 -14 -71 4 -6 1 -10 -5 -10 -6 0 -9 -17 -7 -45 2
-26 -1 -45 -7 -45 -23 0 15 -23 44 -26 17 -2 35 -6 40 -9 4 -3 11 2 14 11 3 8
19 20 36 26 28 9 29 11 13 23 -16 12 -14 12 11 8 20 -4 27 -2 22 6 -5 7 1 11
14 11 13 0 24 -8 27 -20 3 -11 9 -17 14 -14 11 6 2 90 -13 117 -8 15 -7 18 3
12 9 -6 11 6 6 55 -4 35 -9 66 -12 69 -3 3 -19 -3 -34 -12 -45 -26 -54 -20
-27 16 30 39 31 51 11 91 -8 15 -13 31 -10 35 2 4 -2 19 -10 34 -10 19 -10 27
-2 31 9 3 8 7 -2 14 -11 8 -11 10 0 14 9 3 7 10 -9 26 -26 26 -28 37 -7 28 12
-4 15 3 16 32 1 20 3 68 5 107 7 117 -22 150 -127 142 -37 -3 -63 1 -83 12
-23 13 -30 13 -33 3 -4 -10 -8 -9 -18 4 -11 16 -17 16 -54 5 -27 -8 -45 -20
-50 -34 -12 -31 -52 -63 -73 -59 -10 2 -18 -1 -18 -7 0 -6 -7 -11 -15 -11 -15
0 -17 -5 -17 -35 0 -31 3 -34 32 -28 18 3 30 1 30 -5 0 -6 12 -24 26 -41 25
-30 25 -31 4 -31 -12 0 -19 -4 -15 -9 7 -12 -32 -34 -62 -36 -17 0 -19 2 -11
12 14 17 7 23 -29 29 -62 11 -94 10 -104 -3 -6 -7 -24 -13 -39 -13 -39 0 -60
-9 -60 -26 0 -8 -3 -14 -7 -14 -5 0 -21 -11 -37 -25 -16 -14 -37 -25 -46 -25
-14 0 -60 -34 -60 -45 0 -2 21 5 46 15 50 22 74 25 74 11 0 -5 23 -9 50 -7 28
1 50 0 50 -1 0 -2 -27 -16 -60 -33 -32 -16 -67 -38 -77 -47 -10 -10 -31 -29
-47 -43 l-30 -25 22 31 c11 17 39 43 61 59 23 15 41 29 41 32 0 12 -73 -38
-124 -86 -32 -31 -53 -46 -45 -33 8 12 17 22 20 22 4 0 9 7 12 14 7 17 -10 13
-53 -12 -24 -14 -24 -13 -5 3 11 9 44 28 73 42 29 14 55 31 59 37 3 6 3 8 -2
4 -4 -4 -15 -2 -23 5 -10 7 -13 8 -9 1 4 -7 0 -18 -9 -25 -12 -10 -17 -10 -23
-1 -5 9 -25 0 -67 -29 l-59 -40 45 41 45 41 -40 -6 c-32 -4 -36 -3 -20 5 11 6
31 17 45 25 24 14 24 15 3 15 -12 0 -24 4 -27 9 -10 15 25 22 42 9 10 -8 13
-8 9 -2 -4 7 11 30 32 52 39 40 39 40 10 30 -16 -5 -32 -14 -35 -19 -3 -5 -13
-9 -22 -9 -9 0 -30 -11 -46 -25 -16 -14 -33 -25 -38 -25 -5 0 -7 -4 -3 -9 3
-5 1 -12 -5 -16 -6 -4 -8 -11 -5 -16 4 -5 -6 -20 -22 -33 -15 -14 -31 -20 -34
-15 -3 6 -18 7 -33 3 -20 -5 -24 -9 -16 -19 7 -9 7 -15 1 -19 -5 -4 -12 -2
-15 3 -14 23 -80 -12 -142 -75 -35 -35 -64 -69 -64 -75 0 -6 -5 -20 -12 -32
-6 -12 -13 -38 -15 -57 -5 -44 -21 -61 -34 -37 -6 9 -18 17 -29 17 -19 0 -36
32 -25 50 3 5 13 10 21 10 8 0 14 7 14 15 0 17 30 50 51 57 8 3 5 7 -9 10 -12
4 -20 3 -17 -2 3 -4 -2 -11 -11 -14 -25 -10 -34 -7 -28 9 4 11 -1 15 -17 16
-19 0 -15 4 15 15 32 11 41 12 49 2 6 -10 7 -9 4 2 -3 11 -16 14 -52 12 -40
-3 -47 -1 -42 12 5 12 0 16 -21 16 l-27 1 28 17 c15 9 27 20 27 23 0 10 -49
17 -71 12 -15 -4 -17 -8 -8 -19 9 -11 6 -14 -20 -14 -21 0 -31 5 -31 15 0 20
-34 19 -65 -1 -14 -9 -25 -12 -25 -6 0 6 6 12 13 15 9 3 9 9 0 25 -11 18 -10
20 2 16 8 -4 15 -1 15 4 0 6 16 14 35 18 48 9 54 24 10 24 -32 0 -35 2 -26 19
9 16 8 18 -12 15 -12 -2 -7 1 11 8 35 12 43 34 15 40 -12 2 5 15 44 34 35 17
60 34 57 37 -3 3 4 19 17 36 28 38 79 57 110 40 19 -10 21 -9 16 5 -6 15 4 21
26 17 51 -9 184 -5 206 7 19 9 23 10 14 1 -31 -31 -9 -38 25 -9 22 18 22 21 8
36 -10 9 -16 11 -16 4 0 -7 -7 -10 -15 -6 -8 3 -15 2 -15 -2 0 -4 -14 -7 -31
-7 -22 0 -34 7 -44 24 -15 28 -9 55 11 47 7 -3 27 -1 43 4 19 5 31 5 31 -1 0
-6 7 -6 18 -1 9 5 31 12 47 15 17 3 53 16 80 28 28 12 62 23 76 24 22 2 25 -1
22 -24 -3 -26 -3 -26 7 -3 5 13 14 21 19 18 4 -3 7 5 6 19 -2 13 3 29 11 36
12 9 12 15 2 27 -8 10 -9 13 -2 9 25 -14 23 24 -1 45 -14 12 -23 28 -20 36 2
7 1 10 -4 7 -5 -3 -13 5 -17 17 -7 22 -89 108 -102 108 -4 0 -18 -9 -31 -19z
m-1019 -584 c-5 -7 -15 -28 -22 -47 -7 -19 -23 -58 -36 -85 -12 -28 -22 -59
-21 -70 1 -11 -3 -19 -9 -18 -6 1 -10 -8 -10 -20 1 -12 -4 -30 -12 -39 -14
-16 -13 -18 4 -18 11 0 15 -3 9 -8 -6 -4 -18 -23 -28 -42 -9 -19 -17 -28 -17
-20 0 13 -1 13 -10 0 -8 -12 -10 -12 -10 5 0 25 54 215 69 244 7 12 11 27 10
34 -3 25 1 37 14 37 6 0 22 16 35 36 12 19 27 32 33 28 6 -3 6 -11 1 -17z
m469 -2847 c5 0 9 -7 9 -16 0 -10 6 -14 15 -10 23 8 45 -4 45 -25 0 -10 7 -22
16 -27 11 -6 20 -31 26 -73 4 -35 13 -66 19 -70 7 -4 13 -28 16 -54 2 -26 8
-56 13 -66 13 -23 13 -39 0 -39 -5 0 -10 7 -10 16 0 13 -3 14 -14 5 -11 -9
-15 -5 -20 20 -4 19 -10 28 -17 23 -9 -5 -10 1 -5 22 4 18 3 24 -2 16 -7 -11
-11 -10 -16 4 -4 10 -1 21 5 25 9 5 6 19 -9 51 -12 23 -23 37 -23 31 -3 -27
-4 -32 -11 -39 -9 -9 -12 30 -8 106 1 30 7 59 14 63 7 6 6 7 -4 4 -8 -2 -18
-19 -21 -38 -4 -19 -7 -29 -8 -22 -2 17 -41 3 -41 -15 0 -12 -3 -13 -12 -4 -9
9 -6 17 11 36 20 21 23 32 18 68 -3 24 -3 35 0 26 2 -10 9 -18 14 -18z"/>
<path d="M11780 3300 c-8 -5 -17 -7 -21 -4 -9 5 -35 -60 -44 -109 -6 -28 -2
-43 15 -67 23 -33 35 -36 77 -18 15 6 34 10 41 9 6 -1 12 2 13 6 0 4 3 19 5
33 12 67 11 81 -8 105 -11 14 -23 23 -28 20 -5 -3 -15 3 -22 14 -10 13 -18 17
-28 11z"/>
<path d="M6980 3126 c0 -9 -4 -14 -10 -11 -5 3 -10 -1 -10 -9 0 -8 5 -18 10
-21 6 -3 10 -11 10 -16 0 -6 -4 -7 -10 -4 -5 3 -10 1 -10 -4 0 -6 6 -11 13
-11 8 0 22 -9 31 -19 14 -15 15 -24 6 -40 -12 -23 -24 -29 -17 -8 6 17 -12 49
-24 42 -5 -4 -7 -27 -4 -52 6 -50 -10 -56 -32 -12 -13 24 -13 24 -13 2 0 -13
-4 -23 -9 -23 -30 0 -41 -137 -16 -197 20 -47 18 -56 -2 -18 -10 17 -25 59
-35 95 l-18 65 6 -55 c3 -30 6 -71 8 -90 3 -37 43 -197 54 -214 10 -16 20 28
10 47 -5 9 -6 17 -2 17 4 0 13 -8 20 -17 8 -11 13 -13 14 -5 0 19 20 14 21 -5
0 -11 5 -6 11 11 l11 29 12 -24 c13 -23 13 -22 25 19 7 23 17 39 23 35 10 -6
5 54 -8 92 -6 16 -5 17 4 5 9 -13 11 -13 12 0 0 8 7 -10 15 -40 15 -52 14 -99
-2 -160 -5 -18 -4 -22 4 -15 13 12 32 122 32 185 0 45 -31 125 -44 113 -4 -4
-9 3 -13 15 -3 12 -9 19 -14 16 -5 -3 -9 1 -9 8 0 9 -3 9 -10 -2 -13 -20 -12
-13 4 40 9 26 15 36 16 25 2 -17 3 -16 10 5 7 21 8 18 10 -20 l2 -45 10 37 c8
32 12 36 24 23 9 -9 14 -37 14 -82 0 -37 5 -75 11 -83 7 -11 8 1 5 40 -6 57 3
111 20 117 5 2 8 -19 6 -49 -3 -51 3 -75 33 -128 9 -16 15 -19 15 -9 0 8 -5
20 -10 25 -6 6 -13 35 -15 65 -3 39 -2 47 4 29 9 -24 9 -24 10 -3 1 16 6 21
16 17 17 -7 21 11 4 21 -6 4 -8 14 -5 22 5 12 1 14 -14 10 -14 -4 -20 0 -20
12 0 9 -13 22 -30 28 -16 6 -30 7 -30 2 0 -5 -6 -9 -14 -9 -9 0 -12 7 -9 20 3
11 9 20 14 20 5 0 9 7 9 15 0 8 -7 15 -15 15 -8 0 -15 5 -15 10 0 6 -11 16
-25 22 -14 6 -25 18 -25 27 0 9 -11 29 -25 45 -19 22 -25 25 -25 12z"/>
<path d="M2100 2963 c-122 -31 -136 -47 -128 -151 4 -58 35 -112 64 -112 7 0
19 -6 26 -13 7 -8 26 -17 43 -21 33 -8 84 -56 60 -56 -8 0 -15 -6 -15 -14 0
-8 -16 -28 -36 -44 -47 -39 -45 -74 4 -79 26 -3 34 0 41 19 6 13 10 19 10 13
1 -5 18 -11 38 -12 28 -2 34 0 23 8 -11 7 -4 9 25 8 22 -2 46 -7 53 -12 8 -7
12 -5 12 7 0 9 5 16 10 16 6 0 10 4 10 9 0 4 -27 16 -60 25 -53 15 -60 20 -60
42 0 17 4 23 12 18 8 -5 9 -2 5 9 -3 9 0 22 7 29 7 8 18 30 25 50 7 20 22 49
33 64 55 69 -2 172 -112 201 -24 7 -52 5 -90 -4z"/>
<path d="M11570 2830 c-11 -7 -12 -12 -3 -21 9 -9 8 -15 -4 -27 -14 -14 -14
-17 1 -27 9 -7 13 -14 11 -17 -3 -3 1 -11 10 -18 8 -7 15 -19 15 -26 0 -8 7
-14 15 -14 8 0 15 -4 15 -10 0 -5 -5 -10 -11 -10 -5 0 -7 -5 -3 -11 4 -7 7
-24 6 -40 -1 -29 17 -42 43 -33 17 7 30 47 22 68 -3 8 -2 42 3 75 8 57 7 62
-18 91 -27 31 -71 40 -102 20z"/>
<path d="M1819 2705 c-6 -5 -45 -13 -71 -14 -10 -1 -18 -8 -18 -16 0 -9 -9
-15 -25 -15 -14 0 -25 5 -25 10 0 6 -12 10 -26 10 -16 0 -24 -5 -21 -12 2 -7
10 -13 17 -13 7 0 14 -8 16 -18 1 -9 -2 -15 -7 -11 -8 4 -14 -17 -10 -38 0 -5
-10 -8 -24 -8 -30 0 -32 -11 -4 -36 17 -15 23 -16 40 -6 15 10 19 10 19 0 0
-10 2 -10 8 -1 10 15 55 -6 83 -39 11 -11 19 -17 19 -12 0 5 6 2 13 -7 7 -9
26 -19 42 -23 22 -5 26 -4 15 4 -11 7 -11 10 -2 10 7 0 11 4 8 9 -3 5 0 11 8
14 7 3 17 23 20 44 4 21 14 48 22 60 20 32 3 68 -40 84 -20 7 -36 17 -36 21 0
9 -14 11 -21 3z"/>
<path d="M440 2630 c0 -25 -4 -30 -25 -30 -18 0 -26 -7 -31 -26 -6 -23 -10
-25 -38 -20 -17 3 -40 17 -51 30 l-20 24 -20 -21 c-13 -13 -16 -21 -8 -24 9
-3 7 -14 -7 -38 -20 -36 -20 -37 24 -155 11 -30 20 -56 21 -56 0 -1 26 -5 58
-8 53 -7 57 -6 57 13 0 13 10 26 24 32 13 6 27 20 29 31 4 15 11 18 28 13 22
-7 58 -42 59 -57 0 -5 7 -8 15 -8 9 0 27 -8 41 -17 21 -13 31 -14 57 -5 21 7
45 8 70 3 20 -5 37 -7 37 -4 0 3 7 0 15 -7 11 -10 18 -9 30 4 9 9 23 16 31 16
8 0 14 5 14 10 0 6 6 10 13 10 14 0 57 63 57 83 0 8 -9 22 -20 32 -11 10 -17
22 -14 26 3 5 0 9 -5 9 -6 0 -10 3 -9 8 7 24 -14 93 -31 102 -26 13 -64 13
-79 -2 -9 -9 -17 -6 -37 12 -14 13 -25 30 -25 37 0 9 -5 11 -12 7 -7 -4 -21
-9 -32 -10 -12 -1 -47 -8 -78 -15 -55 -12 -59 -12 -78 9 -31 33 -60 29 -60 -8z"/>
<path d="M3183 2590 c-13 -27 -23 -53 -23 -59 0 -5 -6 -11 -12 -14 -10 -3 -10
-8 1 -21 8 -9 10 -16 5 -15 -5 1 -33 1 -61 0 -59 -1 -68 -16 -37 -59 19 -28
44 -28 51 -2 4 16 13 20 39 18 18 -1 31 -5 29 -8 -2 -4 13 -16 33 -27 71 -39
134 -7 138 69 2 33 6 42 18 40 37 -7 2 61 -44 83 -19 10 -47 24 -62 31 -41 22
-51 17 -75 -36z"/>
<path d="M1102 2449 c-64 -8 -102 -41 -76 -66 10 -10 13 -25 8 -48 -7 -41 2
-47 75 -49 31 -1 62 -5 69 -10 8 -4 27 -9 44 -10 20 -2 37 -11 46 -24 8 -12
20 -22 28 -22 7 0 16 -9 19 -20 3 -11 11 -20 17 -20 7 0 7 4 -1 13 -6 8 -8 17
-4 20 3 4 2 7 -4 7 -17 0 -23 51 -7 57 21 8 17 36 -6 51 -12 7 -18 17 -15 22
3 6 0 10 -8 10 -7 0 -19 11 -25 25 -6 14 -18 25 -25 25 -8 0 -29 10 -48 23
-29 19 -42 21 -87 16z"/>
<path d="M412 2129 c-9 -13 -10 -25 -3 -32 5 -7 9 -23 9 -37 0 -14 1 -42 3
-63 2 -29 -4 -44 -24 -65 -19 -20 -24 -34 -20 -55 5 -23 0 -33 -28 -57 -23
-19 -36 -24 -41 -17 -5 9 -10 9 -20 -1 -14 -14 -68 -17 -68 -3 0 14 -52 24
-60 11 -10 -17 -42 2 -65 37 -10 15 -24 32 -32 36 -7 5 -11 12 -8 18 10 15
-12 10 -25 -6 -10 -13 -10 -21 -1 -43 7 -15 14 -58 16 -96 2 -37 7 -71 10 -74
3 -3 5 -16 5 -28 0 -17 7 -25 25 -30 33 -8 33 -7 36 43 3 48 12 48 76 -4 23
-19 44 -34 47 -34 18 3 27 0 23 -6 -3 -5 9 -9 26 -9 52 -2 85 -21 112 -64 14
-22 30 -38 35 -35 5 3 26 -5 46 -19 44 -30 54 -26 54 19 0 29 -4 36 -27 41
-15 4 -45 26 -68 49 -41 40 -41 42 -27 72 12 26 20 31 52 31 25 1 40 -4 44
-14 4 -10 13 -13 26 -9 13 4 20 2 20 -6 0 -7 11 -3 24 10 l25 23 22 -21 c23
-21 66 -20 81 3 5 6 8 7 8 1 0 -5 5 -2 11 8 5 9 16 17 23 17 17 0 50 49 49 73
-1 9 3 17 8 17 6 0 8 -4 5 -8 -6 -11 30 -42 48 -42 8 0 16 -7 20 -15 3 -8 16
-15 28 -15 13 0 28 -4 34 -8 13 -8 25 -64 13 -56 -5 3 -9 -2 -9 -11 0 -9 -9
-29 -19 -44 l-20 -27 37 -13 c47 -17 72 -39 72 -63 0 -10 5 -18 10 -18 17 0
11 -32 -7 -46 -17 -12 -17 -13 1 -20 12 -5 23 -2 30 9 7 8 25 17 41 19 24 2
31 8 33 30 2 15 13 36 26 45 12 10 25 26 29 36 4 9 17 17 30 17 38 0 47 18 34
73 -9 43 -8 50 9 68 20 19 20 19 48 -25 23 -37 48 -55 77 -56 3 0 6 17 6 38 1
58 2 62 18 62 8 0 15 9 15 20 0 11 7 20 15 20 8 0 15 4 15 9 0 6 -10 8 -21 6
-24 -5 -51 7 -80 36 -24 24 -39 17 -39 -17 0 -29 -25 -60 -35 -44 -3 5 -1 10
6 10 7 0 9 3 5 8 -4 4 -11 7 -14 7 -16 0 -71 47 -77 64 -3 11 -17 27 -31 35
-23 16 -25 16 -48 -9 -31 -33 -49 -32 -84 6 -25 27 -32 30 -51 20 -19 -11 -26
-28 -22 -58 1 -8 -9 -13 -24 -13 -15 0 -25 6 -25 15 0 8 -13 21 -29 29 -31 17
-51 7 -51 -26 0 -23 -44 -51 -89 -56 -20 -3 -68 -4 -108 -3 -50 1 -75 -3 -86
-13 -22 -22 -53 -25 -49 -3 2 9 -3 26 -11 38 -13 18 -12 26 15 75 21 38 27 58
20 67 -5 7 -10 32 -10 56 -1 23 -7 50 -15 60 -8 9 -12 22 -10 29 3 6 -2 12
-10 12 -8 0 -20 7 -27 15 -17 20 -23 19 -38 -6z"/>
<path d="M11546 2056 c-21 -11 -43 -31 -47 -44 -5 -12 -17 -22 -27 -22 -10 0
-27 -9 -37 -20 -10 -11 -28 -20 -39 -20 -23 0 -41 -18 -67 -67 -14 -26 -14
-33 -3 -56 13 -24 64 -57 89 -57 6 0 40 23 74 50 47 38 71 50 96 50 22 0 43 9
61 25 15 14 35 24 43 22 22 -4 17 -50 -8 -86 -26 -37 -26 -41 2 -38 12 1 21
-3 20 -9 -2 -12 52 -4 75 10 16 10 21 58 11 116 -14 81 -27 107 -69 140 -47
37 -114 40 -174 6z"/>
<path d="M1938 1834 c-3 -3 -1 -21 5 -40 9 -30 14 -34 34 -30 50 13 73 -89 44
-194 -12 -42 -11 -49 13 -104 14 -32 26 -60 26 -62 0 -2 -9 -4 -21 -4 -32 0
-62 -19 -51 -33 5 -7 12 -28 15 -47 3 -19 11 -62 18 -95 6 -33 11 -72 10 -87
0 -18 5 -28 14 -28 8 0 15 -8 15 -19 0 -10 7 -24 15 -31 12 -10 16 -9 22 5 4
12 -1 24 -14 34 -12 10 -20 29 -21 51 0 19 -1 52 -2 73 -1 49 5 57 39 57 47 0
80 -53 55 -88 -12 -18 -12 -21 3 -24 16 -3 16 -4 0 -20 -11 -10 -13 -19 -7
-23 6 -4 9 -19 8 -33 -2 -21 2 -28 20 -30 26 -4 28 8 7 47 -13 26 -12 32 5 67
25 49 25 79 -1 115 -11 16 -22 46 -24 66 -2 21 -8 39 -14 41 -6 2 -11 8 -11
13 0 6 -8 19 -18 30 -10 10 -30 53 -44 95 -21 60 -24 82 -17 109 7 25 6 43 -6
71 -8 20 -15 45 -15 55 0 29 -84 81 -102 63z"/>
<path d="M2415 1759 c-4 -5 -3 -14 0 -20 4 -6 2 -30 -5 -54 -10 -37 -10 -46 5
-69 20 -30 45 -34 51 -8 3 9 17 23 32 30 23 11 29 10 40 -5 15 -21 82 -28 82
-9 0 14 -31 46 -44 46 -11 0 -45 43 -46 57 0 26 -102 55 -115 32z"/>
<path d="M10418 1570 c-16 -28 -16 -30 3 -54 11 -14 18 -30 15 -35 -8 -12 -42
-3 -57 15 -6 8 -22 14 -36 14 -37 0 -177 30 -187 41 -6 5 -25 9 -43 9 -25 0
-33 -4 -33 -18 0 -21 19 -42 38 -42 8 0 28 -10 45 -22 18 -13 40 -21 50 -20
28 5 48 -17 41 -44 -4 -15 0 -29 11 -41 17 -16 17 -16 10 7 -7 22 -6 23 8 12
13 -11 17 -10 27 7 15 29 38 26 58 -8 14 -25 21 -28 49 -24 l32 5 -14 -53 c-8
-30 -15 -75 -15 -101 0 -27 -4 -48 -10 -48 -5 0 -10 7 -10 15 0 8 -7 15 -15
15 -18 0 -18 2 -1 -46 7 -22 11 -45 8 -53 -2 -8 6 -23 19 -33 16 -13 20 -21
12 -25 -19 -7 -16 -43 3 -43 8 0 13 -4 9 -9 -3 -5 0 -13 6 -17 9 -5 11 12 6
70 -3 42 -1 91 4 109 6 17 12 45 14 61 3 16 9 34 15 40 13 13 13 43 0 51 -6 4
-10 3 -9 -2 4 -26 -3 -35 -12 -14 -7 18 -6 28 6 41 22 24 20 63 -3 56 -15 -5
-17 0 -14 38 l4 44 54 -5 c50 -5 54 -4 54 15 0 12 -12 29 -27 39 -15 10 -41
33 -58 51 -16 17 -32 32 -35 32 -3 0 -13 -13 -22 -30z"/>
<path d="M9900 1555 c-14 -19 -44 -46 -68 -61 -58 -37 -104 -86 -93 -97 9 -9
79 18 94 37 10 13 -3 -35 -13 -49 -11 -15 -21 -65 -14 -65 12 0 33 35 34 55 1
34 25 57 53 50 14 -4 28 -2 32 5 4 7 -1 13 -13 16 -16 5 -18 11 -12 42 4 20
13 50 19 66 16 40 10 40 -19 1z"/>
<path d="M11504 1561 c-12 -9 -25 -32 -29 -49 -3 -17 -11 -35 -17 -38 -13 -8
-28 14 -28 44 0 14 -6 22 -18 22 -10 0 -22 4 -27 9 -6 6 -17 4 -30 -5 -16 -12
-18 -18 -7 -34 6 -11 12 -29 12 -40 0 -20 -12 -24 -58 -20 -18 1 -23 -3 -20
-17 3 -12 11 -17 27 -15 22 2 22 0 16 -40 -4 -24 -14 -60 -21 -82 -18 -49 -18
-89 -1 -83 6 2 11 9 10 15 -1 5 7 34 17 63 11 30 20 66 20 81 0 28 33 68 57
68 7 0 21 -9 30 -20 33 -38 44 -28 58 55 4 21 13 52 22 68 18 36 14 40 -13 18z"/>
<path d="M191 1516 c-12 -18 -21 -43 -21 -55 0 -11 -4 -21 -10 -21 -5 0 -10 9
-10 20 0 11 -5 20 -11 20 -5 0 -7 -4 -4 -10 3 -5 2 -10 -3 -10 -5 0 -7 -11 -4
-25 7 -41 -11 -52 -73 -47 l-55 4 0 -55 c0 -41 3 -55 13 -52 6 3 18 -4 25 -15
10 -17 10 -24 -1 -40 -8 -11 -17 -17 -20 -13 -4 3 -7 1 -7 -5 0 -19 24 -14 38
9 23 36 24 13 3 -27 -12 -21 -21 -43 -21 -49 0 -6 -5 -16 -12 -23 -17 -17 -20
-52 -7 -68 8 -10 8 -14 0 -14 -6 0 -11 -14 -11 -31 0 -29 1 -30 32 -24 22 4
28 3 19 -3 -9 -7 -10 -12 -2 -16 15 -10 33 3 27 19 -2 7 1 16 8 18 10 4 12 -1
9 -14 -3 -10 -1 -19 5 -19 5 0 12 -6 15 -13 5 -14 -54 -17 -65 -3 -4 6 -12 5
-21 -3 -12 -9 -16 -9 -20 1 -3 7 -6 -204 -6 -469 l-1 -483 34 0 c19 0 37 6 39
13 4 9 6 9 6 0 1 -15 201 -19 201 -5 0 5 -23 15 -51 22 -38 11 -54 21 -65 42
-8 15 -12 28 -8 28 4 0 1 7 -6 15 -7 9 -10 19 -6 22 4 4 11 2 15 -6 6 -9 10
-8 14 8 3 14 10 18 26 14 25 -6 28 -21 4 -19 -10 0 -18 -6 -18 -14 0 -18 53
-30 78 -18 38 19 57 18 57 -4 0 -12 18 -38 42 -60 l41 -38 89 0 88 0 -16 25
c-19 29 -10 49 20 41 11 -3 34 0 49 7 28 12 29 14 23 64 -8 65 7 76 35 28 12
-20 25 -32 28 -28 3 5 14 13 24 16 15 6 17 13 12 37 -5 23 -3 30 9 30 8 0 18
-5 21 -10 9 -15 27 0 21 17 -5 11 -2 13 11 8 10 -4 30 -10 45 -13 32 -5 46
-36 27 -58 -9 -11 -10 -17 -1 -23 6 -3 10 -16 9 -29 -1 -23 -23 -37 -32 -22
-11 18 -25 10 -25 -15 0 -47 20 -75 54 -75 25 1 34 7 46 33 16 34 15 81 -1 71
-6 -3 -9 11 -8 35 3 36 6 41 28 42 15 1 29 1 33 0 4 0 5 6 2 13 -3 8 3 19 15
26 12 6 21 17 21 24 0 15 -42 56 -58 56 -18 0 -15 17 4 24 10 4 14 14 11 26
-7 25 10 26 18 1 3 -10 15 -27 27 -37 21 -19 21 -19 15 6 -4 14 -7 33 -7 43 0
10 -21 38 -46 62 -25 25 -43 49 -40 54 9 14 64 -16 71 -38 13 -42 94 -31 132
18 8 11 12 12 13 4 0 -26 18 -11 34 30 21 50 29 107 16 107 -6 0 -10 8 -10 18
0 11 7 7 21 -16 19 -30 20 -37 10 -97 -7 -36 -9 -70 -6 -75 9 -15 32 -12 51 7
16 17 17 15 11 -26 -6 -50 -1 -71 19 -71 9 0 14 11 14 30 0 17 5 30 11 30 6 0
9 9 6 20 -3 11 -1 23 5 26 5 3 6 20 2 37 l-6 32 26 -30 c31 -36 32 -41 5 -56
-19 -10 -20 -13 -6 -26 20 -21 37 -8 37 28 0 21 10 39 32 60 32 29 32 30 17
57 -9 15 -20 26 -25 25 -5 -1 -10 10 -11 25 -1 23 0 24 9 8 6 -11 26 -32 44
-48 37 -32 44 -62 18 -72 -16 -6 -16 -8 0 -24 9 -10 16 -25 16 -32 0 -11 3
-11 12 -2 19 19 28 14 28 -12 0 -14 5 -28 11 -32 7 -4 10 3 8 17 -1 13 3 35 8
49 l10 24 35 -38 c33 -36 37 -37 45 -20 16 30 25 76 14 70 -5 -3 -12 1 -15 10
-3 8 -10 12 -16 9 -5 -3 -10 -1 -10 4 0 6 5 11 10 11 6 0 5 6 -2 14 -7 8 -16
12 -20 9 -5 -2 -8 4 -8 14 0 11 -4 23 -9 28 -5 6 -12 26 -16 45 l-8 35 27 -32
c14 -17 26 -36 26 -42 0 -11 13 -15 38 -12 6 1 12 -4 12 -12 0 -19 100 -39
107 -20 6 17 43 17 44 1 1 -7 4 -2 8 12 7 25 14 26 66 15 19 -4 45 -45 45 -72
0 -7 5 -13 11 -13 7 0 9 12 5 35 -8 43 8 46 28 6 9 -16 23 -31 31 -35 25 -9
30 -7 17 6 -8 8 -9 15 -1 25 15 17 39 17 39 -1 0 -8 7 -16 15 -20 8 -3 15 -12
15 -21 0 -8 6 -15 14 -15 7 0 19 -7 26 -15 12 -15 30 -12 30 6 0 5 -11 19 -25
31 -31 27 -35 54 -6 38 14 -7 22 -7 26 1 4 6 13 8 20 5 8 -3 15 0 17 6 3 7 22
-5 43 -25 43 -41 59 -37 49 12 -5 22 -15 36 -30 42 -13 4 -24 17 -24 27 0 10
-7 27 -15 38 -14 19 -14 18 -15 -3 0 -36 -20 -27 -21 10 -2 29 -2 29 -6 5 -3
-20 -9 -25 -21 -21 -9 3 -3 -4 14 -15 35 -22 51 -42 35 -42 -5 0 -12 4 -15 9
-3 5 -15 11 -26 14 -11 3 -18 1 -14 -4 3 -5 0 -9 -7 -9 -7 0 -4 -6 7 -14 10
-8 17 -17 14 -19 -10 -10 -84 9 -88 22 -3 10 1 12 17 8 18 -4 21 -1 21 28 0
51 11 95 23 88 10 -6 5 24 -9 61 -3 9 -1 16 5 16 7 0 11 20 11 51 0 31 4 48
10 44 6 -4 8 -10 6 -14 -3 -4 0 -13 6 -21 8 -12 9 -12 4 2 -3 10 -1 20 4 23
20 12 9 31 -25 47 -31 14 -50 9 -25 -7 6 -3 10 -21 9 -38 l-1 -32 -13 30 -14
30 -1 -37 c0 -20 -3 -44 -7 -54 -4 -12 -3 -15 5 -10 8 5 12 -2 11 -21 0 -23
-2 -25 -8 -9 -8 20 -41 32 -41 15 0 -5 4 -9 8 -9 16 0 34 -52 23 -63 -7 -7 -7
-15 0 -24 7 -7 8 -13 4 -13 -4 0 -13 7 -20 17 -11 14 -14 14 -31 2 -10 -8 -20
-21 -22 -29 -2 -8 -12 -23 -23 -33 -18 -17 -19 -17 -19 0 0 10 13 33 30 51 29
32 50 64 50 76 0 3 -7 6 -15 6 -14 0 -19 -11 -16 -35 0 -6 -8 -16 -19 -23 -19
-12 -20 -10 -14 26 5 30 3 40 -10 45 -13 5 -15 -1 -13 -42 4 -56 -14 -61 -32
-9 -9 25 -8 29 5 24 8 -3 13 -2 11 2 -3 4 0 18 5 32 7 18 11 21 17 11 5 -8 14
-10 22 -6 9 6 6 11 -10 17 -18 6 -27 3 -40 -14 -23 -28 -53 -18 -49 16 2 13 9
30 15 37 6 8 14 48 18 89 9 100 9 102 23 127 16 30 17 27 -30 62 -31 23 -44
28 -50 18 -6 -8 -10 -9 -15 -1 -9 12 -41 13 -60 1 -7 -4 -14 1 -18 13 -7 23
-35 27 -35 6 0 -8 -6 -16 -12 -19 -8 -2 -13 -20 -13 -42 0 -24 -5 -40 -14 -43
-10 -3 -13 3 -9 26 l4 30 -35 -26 c-20 -15 -31 -20 -24 -12 8 10 9 21 3 30
-14 22 -12 30 9 30 10 0 21 7 25 15 3 8 17 20 31 25 14 5 25 13 25 18 0 9 -82
64 -110 74 -8 3 -22 21 -31 39 -50 104 -65 129 -74 125 -5 -2 -9 -9 -7 -15 1
-7 -6 -26 -15 -42 -16 -26 -16 -31 -3 -39 12 -7 16 -4 18 15 4 31 12 31 35 -1
21 -28 15 -59 -9 -50 -12 5 -14 0 -8 -29 6 -34 -6 -48 -21 -25 -10 16 -25 1
-25 -25 0 -21 32 -55 52 -55 4 0 18 22 30 50 25 55 43 66 33 21 -3 -16 -8 -56
-10 -90 -2 -33 -8 -68 -14 -78 -5 -10 -9 -27 -8 -37 3 -25 -20 -32 -26 -9 -4
15 -5 14 -6 -4 0 -12 5 -23 11 -25 7 -3 11 -18 10 -37 -2 -29 0 -32 20 -29 13
2 23 8 23 13 1 27 26 54 46 50 12 -3 24 -7 28 -11 3 -4 -1 -5 -9 -2 -14 4 -40
-13 -40 -27 0 -4 12 -5 28 -4 15 2 36 -2 47 -8 18 -10 16 -12 -18 -18 -34 -7
-36 -9 -30 -34 3 -14 9 -28 12 -31 4 -3 6 -12 5 -20 0 -8 -2 -31 -2 -49 -2
-43 -23 -29 -24 16 -1 20 -6 29 -18 30 -15 1 -16 -4 -10 -30 4 -18 12 -42 18
-53 6 -12 8 -24 5 -28 -3 -3 -1 -6 5 -6 17 0 15 -35 -3 -50 -9 -8 -13 -21 -9
-36 4 -16 2 -24 -7 -24 -7 0 -9 3 -6 6 3 4 -5 15 -18 26 -14 11 -25 29 -25 41
1 22 1 22 21 -2 11 -13 22 -21 26 -17 4 3 1 12 -5 18 -7 7 -12 20 -12 29 0 9
-9 27 -19 40 -26 32 -47 13 -42 -38 3 -34 2 -36 -15 -23 -16 14 -17 13 -12 -7
3 -12 3 -22 -1 -21 -18 2 -21 -4 -11 -21 7 -14 7 -20 -2 -23 -6 -2 -8 -10 -4
-16 12 -19 26 -14 27 11 0 12 3 16 6 10 2 -7 12 -13 21 -13 12 0 13 -3 5 -11
-8 -8 -9 -19 -2 -37 14 -36 -4 -49 -25 -17 -23 35 -54 65 -67 65 -5 0 3 -11
18 -24 15 -13 25 -27 22 -30 -3 -4 -19 6 -34 20 -27 25 -28 27 -11 40 17 12
15 14 -19 28 -21 9 -41 16 -45 16 -5 0 -11 8 -13 18 -4 15 -6 14 -12 -5 -4
-13 -12 -20 -21 -16 -10 4 -19 -5 -27 -26 -14 -37 -16 -37 -45 -11 -36 34 -26
54 12 25 17 -13 21 -13 34 6 17 25 9 51 -14 42 -13 -5 -16 -2 -12 9 4 8 -2 22
-13 31 -10 9 -19 24 -19 33 0 9 -7 14 -18 12 -23 -4 -52 19 -52 39 0 13 3 13
15 3 13 -11 14 -10 9 5 -5 12 -1 23 11 31 16 12 21 11 37 -3 10 -9 18 -24 18
-34 0 -10 5 -21 11 -25 8 -5 10 1 7 19 -3 15 -1 24 3 21 5 -3 9 -13 10 -22 0
-14 2 -13 9 3 8 18 9 17 9 -7 1 -17 8 -29 19 -32 11 -4 25 -18 32 -31 7 -14
17 -25 22 -25 5 0 7 3 5 8 -2 4 9 17 24 30 19 16 29 19 29 10 0 -10 3 -9 10 2
8 12 10 11 10 -7 0 -13 3 -23 8 -23 10 0 32 51 26 61 -10 17 9 9 22 -8 11 -15
13 -15 14 -3 0 8 -13 28 -30 43 -16 16 -30 33 -30 38 0 5 -4 9 -10 9 -5 0 -10
-9 -10 -19 0 -10 -7 -21 -15 -25 -9 -3 -15 0 -15 8 0 8 4 16 10 18 5 2 11 17
12 33 1 17 8 36 16 44 7 8 10 17 5 20 -5 3 -9 25 -9 49 -2 43 -13 68 -21 45
-3 -7 -16 -13 -30 -13 -27 0 -26 2 -7 -67 5 -18 2 -23 -11 -23 -16 0 -17 -2
-3 -17 20 -23 30 -84 18 -103 -7 -10 -10 -11 -11 -2 -3 22 -4 27 -12 40 -5 6
-16 42 -25 79 -14 55 -21 67 -40 70 -13 2 -25 -3 -28 -11 -3 -8 -19 -18 -36
-21 -22 -5 -28 -11 -24 -23 4 -10 -2 -6 -13 8 -11 13 -16 27 -11 30 5 3 13 17
18 30 12 32 -4 68 -32 72 -19 3 -18 5 13 27 l34 25 -7 -27 c-4 -19 -3 -26 6
-25 6 2 17 -15 24 -37 21 -68 15 -16 -8 69 -12 45 -24 74 -26 65 -5 -26 -41
-30 -63 -8 -17 17 -23 18 -35 8 -12 -10 -16 -8 -21 9 -7 28 -23 28 -23 1 0
-12 -8 -28 -17 -34 -17 -13 -17 -14 0 -33 17 -19 17 -19 -7 -19 -22 0 -24 3
-26 61 -6 155 -9 141 26 142 47 1 94 44 94 86 0 57 -12 64 -62 39 -23 -12 -47
-28 -53 -34 -5 -7 -22 -18 -37 -26 -27 -14 -39 -41 -18 -41 6 0 10 -7 10 -16
0 -15 -2 -15 -24 -1 -13 9 -33 13 -44 11 -11 -3 -23 -1 -26 5 -13 20 -36 11
-77 -29 -23 -22 -53 -46 -68 -53 -19 -9 -27 -21 -29 -45 -3 -27 -7 -32 -20
-27 -30 12 -36 10 -40 -10 -2 -11 -9 -23 -16 -27 -14 -10 -42 -10 -33 -1 4 3
0 17 -8 29 -12 19 -13 28 -3 49 6 14 8 28 4 33 -11 11 -38 -30 -32 -51 2 -9
-2 -20 -8 -25 -7 -4 -16 -14 -20 -22 -3 -8 -3 3 0 24 5 35 4 38 -10 27 -14
-12 -16 -11 -16 7 0 11 -7 25 -16 33 -27 22 -35 -8 -13 -46 41 -69 36 -100
-21 -135 -22 -14 -40 -28 -40 -33 0 -4 -5 -5 -11 -1 -6 4 -9 -1 -7 -13 2 -11
-3 -27 -11 -36 -9 -12 -10 -17 -2 -17 7 0 24 20 39 45 30 49 48 59 38 20 -7
-26 3 -32 21 -14 8 8 13 8 17 0 4 -6 12 -11 17 -11 6 0 4 7 -5 15 -18 18 -11
46 10 38 8 -3 11 -9 8 -14 -3 -5 2 -9 11 -9 9 0 19 9 22 20 3 11 7 20 10 20 2
0 13 -9 25 -20 l22 -20 -22 0 c-11 0 -27 -8 -34 -17 -7 -10 -26 -29 -41 -42
l-27 -25 2 25 c2 19 -1 23 -17 21 -34 -6 -41 -18 -44 -81 -1 -12 -4 -12 -13
-3 -10 10 -10 15 2 22 10 6 11 10 3 10 -7 0 -10 7 -6 16 5 14 2 14 -28 -1 -19
-10 -31 -14 -26 -10 4 5 -1 18 -10 29 -16 19 -16 19 -1 7 15 -11 18 -10 24 14
9 35 2 39 -35 21 -16 -9 -38 -16 -47 -16 -16 0 -16 1 1 13 12 10 14 16 7 21
-14 8 -16 36 -3 36 5 0 11 -9 14 -21 4 -16 10 -19 28 -14 12 4 29 8 38 10 25
3 25 33 -1 60 -32 34 -37 31 -31 -15 4 -25 2 -40 -5 -40 -6 0 -12 10 -14 21
-2 12 -12 28 -23 35 -17 11 -25 11 -49 -1 -32 -17 -46 -12 -46 16 0 11 -4 17
-10 14 -18 -11 -10 42 10 67 15 19 26 24 46 20 20 -3 25 -2 19 7 -4 7 -13 10
-21 7 -18 -7 -18 -3 6 39 11 20 20 38 20 40 0 11 -25 4 -43 -12 -11 -10 -17
-13 -14 -7 4 7 -4 28 -18 48 -14 20 -25 46 -25 57 0 11 -11 24 -25 31 -21 9
-25 18 -25 53 0 22 5 46 12 53 8 8 9 12 1 12 -6 0 -21 -15 -32 -34z m727 -338
c9 -9 12 -9 12 0 0 7 5 12 10 12 6 0 10 -7 10 -15 0 -8 3 -14 8 -14 20 3 31
-3 37 -20 3 -12 17 -21 33 -23 20 -2 28 -9 30 -28 2 -14 1 -22 -4 -18 -12 12
-34 -12 -34 -37 0 -13 -7 -25 -15 -29 -8 -3 -15 0 -15 7 0 22 -16 38 -33 31
-9 -3 -17 -13 -17 -21 0 -12 -3 -13 -15 -3 -8 7 -30 10 -51 7 -41 -6 -64 0
-64 15 0 21 45 100 62 109 10 5 18 16 18 24 0 18 12 19 28 3z m-578 -157 c8
-15 7 -22 -5 -29 -14 -7 -14 -10 2 -28 27 -28 61 -45 68 -34 3 6 12 10 18 10
8 0 8 -3 -2 -9 -10 -7 -8 -12 10 -25 13 -9 20 -16 15 -16 -5 0 -4 -6 2 -13 7
-8 7 -18 2 -27 -13 -20 -12 -30 1 -30 5 0 8 3 5 8 -2 4 2 16 10 27 8 10 14 14
14 7 0 -18 -22 -62 -32 -62 -15 0 -23 5 -20 14 4 11 -26 56 -36 56 -5 0 -27
-23 -50 -51 -23 -29 -42 -46 -42 -39 0 7 14 29 30 50 29 36 42 66 19 43 -12
-12 -49 -6 -49 9 0 6 9 8 20 5 27 -7 25 11 -2 36 -16 13 -19 21 -10 24 6 3 10
9 6 14 -3 5 -7 21 -10 35 -8 43 16 60 36 25z m518 -54 c4 1 6 -5 4 -14 -5 -22
18 -34 41 -21 10 5 20 8 21 6 11 -17 26 -62 21 -66 -3 -3 -5 0 -5 6 0 7 -4 12
-10 12 -15 0 -12 -23 10 -71 10 -24 15 -45 10 -47 -6 -2 -10 -8 -10 -13 0 -6
5 -7 12 -3 7 4 8 3 4 -5 -4 -6 -2 -18 4 -26 10 -12 9 -20 -4 -40 -16 -25 -34
-37 -19 -12 4 6 8 19 8 27 1 23 -27 69 -39 64 -14 -5 -39 33 -31 47 4 5 11 7
16 4 5 -3 6 1 3 9 -4 10 -1 16 7 16 7 0 10 3 6 6 -5 6 -66 -33 -79 -50 -4 -6
-12 2 -19 17 -7 15 -17 27 -23 27 -6 0 -4 4 4 10 8 5 17 5 20 1 3 -5 16 -11
30 -12 26 -4 37 17 26 48 -5 12 -10 11 -27 -8 l-21 -24 17 28 c15 27 15 30 -4
67 -21 40 -16 64 7 33 7 -10 16 -17 20 -16z m-217 -15 c-5 -10 -17 -24 -25
-31 -9 -8 -13 -17 -10 -22 3 -5 -2 -9 -10 -9 -9 0 -16 -7 -16 -16 0 -9 6 -14
13 -11 6 2 18 -2 25 -9 10 -12 10 -14 -2 -14 -11 0 -12 -7 -7 -27 6 -21 13
-27 29 -25 32 5 27 -16 -5 -24 -16 -4 -34 -14 -42 -23 -11 -14 -12 -11 -9 22
3 24 0 37 -8 37 -15 0 -25 -25 -18 -48 3 -9 -1 -6 -9 7 l-14 24 -5 -27 c-3
-14 -1 -26 4 -26 5 0 6 -5 3 -11 -5 -6 -13 -2 -22 11 -13 19 -13 24 -2 31 11
7 9 10 -8 15 -26 7 -28 15 -11 32 7 7 9 12 5 12 -4 0 2 18 13 39 24 48 45 65
29 24 -5 -15 -15 -31 -21 -34 -7 -4 -3 -15 12 -30 l23 -24 -7 27 c-6 25 -4 26
21 22 l28 -4 -25 15 c-14 8 -20 14 -14 15 8 0 9 11 4 35 -4 19 -5 34 -1 33 3
-1 22 6 41 15 46 21 53 21 41 -1z m49 -302 c-9 -35 -9 -46 5 -66 18 -28 33
-30 50 -8 10 15 14 13 36 -17 32 -46 49 -63 49 -49 0 6 5 8 11 4 7 -4 -3 -15
-24 -27 -23 -13 -38 -30 -42 -48 -4 -15 -13 -33 -21 -40 -12 -9 -16 -6 -25 20
-7 19 -18 31 -29 31 -19 0 -30 17 -23 38 3 6 11 12 18 12 7 0 16 -6 18 -12 3
-7 6 -8 6 -2 1 16 -62 99 -67 86 -2 -6 4 -22 14 -36 15 -23 15 -26 0 -26 -9 0
-13 -6 -10 -14 11 -29 -15 -25 -28 4 -19 43 -38 38 -38 -10 0 -22 -5 -40 -10
-40 -16 0 -24 31 -10 40 9 6 9 9 0 15 -8 5 -5 13 9 26 25 24 26 35 6 56 -9 8
-13 18 -10 22 4 3 11 -2 16 -12 13 -23 40 -23 32 1 -3 9 -13 25 -21 35 -19 21
-4 42 18 26 12 -9 11 -10 -5 -4 -28 9 -7 -8 28 -23 22 -9 27 -9 27 3 0 21 20
69 26 62 3 -3 0 -24 -6 -47z"/>
<path d="M1369 1529 c-11 -7 -12 -12 -1 -29 16 -27 15 -59 -3 -66 -19 -8 -19
-33 0 -40 8 -3 23 -21 34 -40 13 -21 28 -34 41 -34 22 0 25 17 9 53 -17 38 1
62 48 62 31 0 38 3 38 20 0 17 -8 20 -46 23 -37 2 -49 8 -59 27 -14 26 -41 37
-61 24z"/>
<path d="M2920 1453 c0 -62 -15 -122 -27 -109 -7 7 -43 -23 -43 -36 0 -5 8 -8
17 -6 11 2 18 -4 20 -17 1 -11 0 -14 -3 -7 -3 6 -12 12 -20 12 -9 0 -12 -4 -9
-10 3 -5 1 -18 -4 -29 -8 -14 -7 -22 3 -30 7 -6 16 -8 19 -4 10 9 9 -1 -8 -92
-8 -44 -15 -82 -15 -85 -1 -3 -9 18 -18 45 -10 28 -23 49 -29 48 -12 -3 -21
35 -22 86 0 13 -6 30 -13 37 -16 15 -109 47 -116 39 -11 -10 42 -55 65 -55 28
0 29 -14 4 -62 -14 -29 -21 -34 -31 -25 -10 9 -12 9 -7 -4 3 -9 -3 -20 -14
-27 -15 -9 -21 -8 -31 6 -7 10 -21 21 -31 25 -13 5 -18 16 -17 34 4 59 2 64
-20 51 -21 -13 -28 -62 -10 -73 6 -3 10 -19 10 -36 0 -23 -4 -29 -22 -30 -21
-1 -20 -2 5 -11 32 -11 35 -30 8 -57 -18 -18 -17 -19 38 -55 43 -29 62 -36 81
-31 14 4 45 8 70 8 57 2 60 16 16 87 -19 30 -32 59 -29 64 7 11 94 -85 90 -99
-31 -105 -53 -165 -59 -165 -5 0 -6 10 -3 23 4 14 1 28 -7 34 -10 9 -13 5 -14
-20 -1 -18 -7 -52 -14 -76 -11 -36 -11 -44 1 -52 8 -5 10 -9 5 -9 -6 0 -20 10
-33 21 -21 20 -23 21 -29 4 -4 -10 -1 -20 6 -25 8 -5 10 -15 6 -26 -4 -10 -1
-21 6 -26 10 -6 9 -8 -4 -8 -14 0 -16 -11 -15 -77 0 -43 6 -82 11 -86 8 -6 7
-10 -1 -14 -18 -7 -16 -40 1 -46 24 -9 37 16 26 52 -8 28 -6 33 14 41 24 9 41
47 25 52 -13 4 -20 70 -9 88 8 12 10 10 12 -10 1 -14 2 -32 4 -40 1 -8 2 -19
3 -25 1 -5 5 -3 11 5 5 8 5 20 1 28 -5 8 -2 27 6 43 12 24 20 28 51 27 23 0
43 -8 52 -19 20 -24 94 -56 87 -37 -2 7 -1 20 3 28 5 9 2 26 -6 40 -13 25 -13
25 -8 -7 7 -37 -4 -42 -30 -14 -14 15 -14 20 -4 25 7 3 0 4 -17 1 -28 -4 -28
-4 -7 7 24 12 28 23 10 34 -6 4 -17 -2 -25 -12 -16 -21 -16 -23 2 60 5 24 18
29 21 8 4 -24 28 -72 36 -72 5 0 8 3 6 8 -2 4 -18 37 -35 73 -26 53 -32 78
-32 127 0 34 4 62 9 62 11 0 21 -30 14 -41 -7 -12 7 -11 26 1 13 8 10 19 -19
72 -29 55 -32 68 -24 98 5 19 13 35 19 36 5 0 17 4 26 8 20 9 13 36 -9 36 -13
0 -14 9 -9 48 20 140 25 207 16 216 -7 7 -10 -11 -10 -51z"/>
<path d="M1757 1416 c-33 -18 -37 -25 -32 -46 4 -14 8 -43 9 -66 2 -46 18 -67
59 -78 24 -6 30 -3 34 14 7 28 31 25 39 -5 7 -30 -2 -59 -16 -50 -5 3 -10 2
-10 -4 0 -18 12 -41 22 -41 5 0 7 4 4 9 -3 5 3 19 13 32 10 13 20 30 22 38 4
9 15 2 39 -23 36 -38 57 -35 46 7 -3 15 -18 30 -36 37 -19 8 -33 22 -37 39 -3
14 -12 35 -19 46 -24 34 -17 45 28 45 31 0 39 3 31 11 -13 13 -57 15 -88 5
-16 -6 -22 -1 -32 23 -13 36 -24 37 -76 7z"/>
<path d="M10131 1394 c-27 -23 -34 -24 -68 -15 -21 6 -52 11 -69 11 -42 0 -92
-50 -100 -101 -7 -39 -18 -50 -27 -26 -4 9 -6 9 -6 0 -1 -7 11 -18 26 -25 25
-12 30 -11 58 15 17 16 38 26 47 23 10 -2 22 2 28 9 14 17 48 26 56 14 3 -5
10 -7 15 -4 16 11 47 -5 52 -26 4 -13 -7 -33 -33 -62 -21 -23 -48 -53 -59 -67
l-22 -25 3 34 c2 21 -2 36 -9 38 -7 3 -13 0 -13 -6 0 -6 -5 -11 -11 -11 -6 0
-9 7 -6 14 7 17 -13 24 -58 22 -23 -1 -31 -6 -33 -24 -3 -20 0 -22 21 -17 20
5 28 1 42 -23 14 -23 28 -32 59 -36 28 -5 42 -3 45 5 6 18 72 89 80 85 3 -2
20 14 36 35 20 26 36 37 48 35 13 -3 17 0 13 11 -3 8 -7 38 -8 66 -1 49 -2 50
-5 11 -5 -51 -32 -79 -66 -70 -20 5 -24 12 -23 36 1 16 9 39 19 50 36 42 12
61 -32 24z"/>
<path d="M9303 1381 c-7 -11 -50 -49 -95 -85 -46 -37 -89 -71 -95 -76 -18 -15
-16 -33 3 -26 9 3 21 6 29 6 7 0 15 9 18 20 3 11 13 20 24 20 10 0 27 7 37 15
11 8 25 15 31 15 15 0 48 -57 35 -62 -6 -2 -13 -27 -17 -56 -5 -43 -3 -52 10
-52 23 0 28 13 18 47 -7 24 -5 33 15 50 21 19 25 20 33 6 15 -28 41 -8 41 32
0 29 -5 37 -26 45 -14 6 -36 7 -49 4 -35 -9 -38 11 -6 42 16 16 31 38 33 49 4
26 -24 31 -39 6z"/>
<path d="M11424 1366 c-16 -17 -34 -52 -34 -66 0 -25 40 12 41 38 0 26 1 26
14 -8 17 -43 18 -53 6 -45 -5 3 -12 -4 -16 -15 -6 -19 29 -80 47 -80 4 0 8
-10 8 -22 0 -22 -1 -22 -24 4 -12 15 -25 25 -28 23 -3 -3 -11 1 -18 10 -17 21
-25 19 -39 -11 -11 -25 -12 -25 -36 -10 -24 16 -25 15 -25 -4 0 -28 -15 -25
-29 6 -8 18 -17 24 -27 20 -12 -4 -15 -2 -10 9 3 8 1 15 -4 15 -6 0 -10 -8
-11 -17 0 -14 -3 -13 -11 5 -16 33 -33 21 -30 -22 2 -22 -3 -48 -12 -62 -15
-22 -15 -24 4 -34 19 -10 20 -7 21 57 1 55 2 63 9 39 5 -16 7 -48 3 -71 -3
-26 -1 -45 6 -49 7 -5 11 1 11 14 0 12 4 18 11 15 10 -7 7 -75 -6 -107 -4 -9
1 -30 9 -47 18 -34 21 -54 5 -31 -9 12 -10 11 -6 -7 3 -13 1 -23 -3 -23 -15 0
-21 -36 -11 -62 10 -27 -1 -55 -31 -76 -10 -7 -16 -17 -13 -22 3 -5 1 -11 -5
-15 -5 -3 -10 0 -11 7 0 7 -1 34 -2 61 -2 33 1 47 10 47 7 0 13 5 13 11 0 17
-24 4 -36 -19 -6 -12 -13 -20 -16 -17 -3 3 -3 -6 -1 -20 3 -14 8 -25 12 -25 4
0 5 -16 3 -35 -5 -46 -20 -45 -25 3 l-4 37 -1 -42 c-2 -44 -16 -57 -26 -25 -3
9 -4 33 -1 52 4 31 3 33 -9 17 -13 -16 -15 -15 -25 14 -11 32 -6 54 7 32 5 -8
13 -9 22 -3 8 6 11 10 6 10 -6 0 -1 7 10 16 16 13 16 15 2 10 -19 -6 -25 9 -8
19 10 6 33 45 27 45 -2 0 -16 -11 -32 -26 -15 -14 -29 -23 -32 -20 -7 7 26 52
35 46 4 -3 9 6 11 20 3 22 4 23 10 6 6 -16 10 -14 24 15 l18 34 -7 -39 c-5
-28 -4 -37 5 -32 6 4 11 1 11 -8 0 -23 17 -28 34 -10 21 21 23 149 2 169 -18
18 -94 36 -102 24 -8 -14 -24 -11 -24 5 0 15 -32 27 -48 17 -6 -3 -15 -19 -21
-34 -6 -15 -15 -27 -21 -27 -13 0 -12 10 5 40 20 35 18 63 -5 90 -16 18 -18
26 -8 38 10 11 9 17 -7 28 -26 19 -32 18 -37 -11 -4 -17 -1 -25 8 -25 20 0 17
-18 -6 -37 -11 -10 -20 -30 -20 -45 0 -29 14 -38 24 -15 3 6 3 0 0 -15 -4 -18
-2 -28 6 -28 6 0 10 -10 9 -22 -2 -13 0 -29 5 -36 10 -17 -44 -132 -63 -132
-8 0 -11 6 -7 16 3 9 6 18 6 20 0 2 6 4 14 4 18 0 40 63 31 90 -9 30 -25 24
-21 -7 2 -16 0 -37 -5 -48 -7 -19 -8 -19 -8 3 -1 32 -21 17 -22 -16 l-1 -27
-8 29 c-7 22 -5 35 9 55 34 49 34 56 -1 21 -42 -42 -58 -71 -57 -102 0 -19 2
-20 7 -5 6 15 10 15 24 5 19 -14 39 -126 21 -115 -6 4 -14 0 -17 -9 -3 -8 -2
-13 3 -10 5 3 3 -24 -4 -61 -11 -57 -11 -64 1 -48 8 10 14 28 14 39 0 18 2 18
10 6 8 -11 9 -8 4 13 -4 17 -2 27 5 27 6 0 11 -4 11 -10 0 -21 18 -9 30 21 10
24 10 33 1 42 -7 7 -12 8 -11 2 6 -29 -2 -38 -13 -15 -7 14 -11 27 -7 30 3 3
11 18 18 33 9 22 17 27 32 22 18 -6 20 -2 20 32 0 21 3 49 7 62 6 23 7 24 15
5 6 -13 7 -7 4 19 -3 22 -1 35 5 32 5 -4 9 -16 9 -28 0 -12 4 -28 9 -35 6 -10
10 -8 16 10 l7 23 7 -25 c4 -14 4 -30 -1 -37 -6 -7 -10 -33 -10 -58 0 -25 -1
-45 -3 -45 -11 0 -28 49 -27 75 1 29 1 29 -10 7 -9 -18 -9 -28 1 -44 11 -17
10 -22 -1 -29 -9 -6 -9 -9 -1 -9 19 0 28 -42 11 -54 -8 -6 -23 -36 -34 -66
-15 -44 -19 -50 -22 -30 -4 23 -5 23 -19 -10 -13 -32 -15 -33 -25 -16 -8 14
-7 21 3 27 9 6 10 9 2 9 -17 0 -86 -87 -80 -102 4 -10 6 -10 6 0 1 7 14 27 31
45 22 24 30 28 30 15 0 -9 -4 -19 -10 -23 -5 -3 -7 -12 -4 -19 3 -7 -4 -29
-16 -47 -11 -19 -23 -42 -26 -51 -4 -10 -10 -18 -15 -18 -5 0 -4 12 1 26 12
32 12 37 1 29 -6 -3 -14 3 -20 12 -8 16 -11 15 -22 -12 -19 -46 -19 -54 -1
-72 16 -16 16 -16 0 -10 -14 5 -21 -2 -33 -30 -20 -46 -19 -47 10 -63 14 -8
24 -19 21 -26 -4 -11 33 -44 49 -44 10 0 5 40 -7 61 -11 17 -10 22 5 30 12 7
16 17 12 32 -5 17 -4 19 4 7 7 -10 13 -11 19 -5 14 16 32 75 32 107 0 18 6 31
18 35 25 10 41 34 42 63 0 14 17 51 38 83 37 55 39 57 49 34 7 -15 8 -29 2
-38 -5 -8 -9 -9 -9 -4 0 12 -20 -16 -20 -29 0 -4 7 -6 15 -2 20 7 19 3 -6 -45
-11 -23 -18 -43 -16 -46 3 -2 8 5 12 16 3 12 13 21 21 21 18 0 18 -8 -2 -27
-11 -12 -14 -26 -9 -56 5 -29 4 -38 -5 -32 -6 4 -9 13 -6 21 3 8 0 13 -7 11
-7 -1 -13 5 -13 13 -1 8 -2 19 -3 23 -2 15 -50 -49 -56 -76 -6 -22 -4 -26 9
-21 9 3 16 12 16 18 0 7 6 21 14 31 13 19 14 18 13 -8 -1 -15 -4 -27 -7 -27
-3 0 -13 -12 -22 -27 -15 -27 -10 -73 9 -73 19 1 35 19 27 31 -6 11 -5 12 8 2
8 -7 19 -9 24 -5 4 4 2 -1 -5 -11 -12 -15 -11 -20 5 -32 24 -18 26 -18 50 -1
19 15 19 16 -5 60 -25 48 -51 61 -51 26 0 -11 -4 -20 -10 -20 -5 0 -10 9 -10
20 0 26 3 36 11 33 27 -9 79 -8 83 1 3 6 3 -1 -1 -17 -4 -21 1 -34 21 -54 14
-14 26 -32 26 -39 0 -8 5 -14 11 -14 7 0 9 8 4 22 -11 38 -7 58 19 93 14 19
26 36 26 40 0 3 11 16 23 28 39 36 42 100 12 243 -6 26 -4 32 14 37 18 4 21 0
22 -29 2 -46 3 -51 12 -60 10 -11 9 8 -7 89 -8 40 -16 86 -18 102 -2 18 -8 29
-15 27 -13 -2 -19 49 -7 61 9 8 34 -18 34 -36 0 -8 6 -19 13 -26 17 -13 37 4
37 33 1 20 1 20 11 3 6 -10 7 -31 4 -47 -4 -19 -3 -30 4 -30 6 0 11 5 11 11 0
7 10 9 25 5 28 -7 33 5 10 28 -8 8 -15 21 -15 29 0 18 -26 41 -38 33 -5 -3 -7
11 -5 31 2 21 -1 39 -8 44 -16 9 -4 39 16 39 9 0 13 -4 10 -10 -3 -6 1 -7 9
-4 10 4 18 -1 23 -12 4 -10 2 -19 -5 -22 -15 -5 -15 -13 -2 -48 10 -26 11 -26
30 -9 17 16 20 16 20 2 0 -9 -4 -27 -10 -41 -13 -34 -3 -61 16 -45 11 9 15 5
21 -22 4 -19 6 -38 5 -43 -2 -4 2 -13 7 -20 12 -14 -8 -50 -31 -54 -9 -1 -19
5 -22 15 -3 11 -4 8 -3 -7 2 -28 -16 -40 -21 -15 -2 9 -1 28 3 43 5 20 8 23
16 11 6 -10 8 -7 7 14 -1 15 -5 27 -8 27 -12 0 -30 -25 -30 -41 0 -10 -6 -19
-12 -21 -10 -4 -10 -11 1 -34 18 -36 24 -67 12 -60 -5 3 -12 -1 -15 -10 -11
-27 -7 -37 9 -24 13 11 14 10 9 -5 -5 -13 -4 -16 4 -11 7 4 12 4 12 1 0 -11
-28 -35 -40 -35 -6 0 -8 -4 -5 -10 3 -5 1 -10 -4 -10 -6 0 -11 7 -11 15 0 28
-18 15 -26 -17 -3 -18 -14 -44 -22 -58 -16 -25 -16 -25 5 -7 15 13 23 15 28 7
9 -15 -26 -41 -45 -34 -8 3 -11 2 -7 -2 4 -4 -1 -16 -10 -27 -16 -17 -13 -16
20 3 22 13 42 19 45 14 6 -9 14 -10 40 -5 4 0 8 12 8 25 1 14 20 46 42 73 22
26 40 55 40 63 2 32 10 55 20 53 14 -3 33 52 22 63 -5 5 -4 29 2 54 12 52 28
75 28 42 0 -23 20 -32 20 -9 1 7 6 5 14 -6 13 -17 15 -16 31 18 10 19 16 37
14 39 -58 43 -75 49 -70 22 1 -5 -5 -6 -14 -2 -9 3 -14 2 -11 -3 3 -5 -1 -22
-9 -37 -13 -25 -15 -26 -16 -9 -1 11 -1 32 0 46 1 16 -4 29 -14 32 -8 4 -15
13 -15 22 0 18 16 20 23 3 3 -7 5 -1 4 14 -1 15 -5 24 -9 22 -4 -3 -8 4 -8 15
0 12 5 21 11 21 5 0 7 4 4 10 -3 5 -1 18 4 27 10 17 10 17 11 0 0 -11 9 -30
19 -43 21 -27 17 -69 -5 -60 -9 3 -14 -2 -14 -14 0 -11 2 -20 5 -20 12 0 59
57 56 69 -1 8 8 23 21 33 16 12 19 18 8 18 -16 0 -70 55 -70 71 0 5 6 9 13 9
16 0 47 56 46 83 l0 22 -9 -22 c-5 -13 -16 -23 -25 -23 -9 0 -15 9 -15 23 -1
21 -2 20 -16 -5 -14 -27 -34 -38 -34 -19 0 6 -15 34 -33 64 -24 41 -35 51 -43
43z"/>
<path d="M11843 1340 c-3 -11 -9 -20 -14 -20 -5 0 -9 -13 -9 -29 0 -36 -19
-52 -27 -23 -3 13 -11 18 -19 15 -9 -3 -14 2 -14 13 0 14 -3 16 -9 6 -4 -7
-18 -14 -29 -15 -12 -1 -22 -4 -22 -8 0 -3 -9 -16 -20 -29 -11 -13 -20 -26
-20 -30 0 -11 30 -34 31 -24 3 40 19 72 19 40 0 -13 6 -17 19 -13 17 4 18 2 9
-24 -14 -40 -32 -53 -50 -36 -37 37 -88 45 -88 14 0 -18 36 -51 48 -43 5 3 15
-1 22 -9 7 -8 16 -12 21 -9 5 3 12 -3 16 -13 3 -10 15 -25 26 -34 21 -17 16
-42 -7 -33 -9 3 -13 -6 -14 -31 -1 -20 -4 -40 -8 -46 -3 -5 2 -21 11 -35 9
-13 13 -29 10 -34 -3 -5 3 -8 14 -7 12 1 17 6 13 16 -4 10 -1 12 8 6 9 -5 11
-4 6 4 -4 6 -2 19 5 27 10 13 10 17 -1 24 -7 4 -21 7 -31 5 -12 -3 -15 2 -12
16 4 15 9 17 27 7 11 -6 18 -7 14 -4 -9 11 25 43 40 38 6 -2 12 3 12 12 0 9
-4 16 -10 16 -5 0 -10 9 -10 20 0 12 -6 20 -13 18 -7 -2 -13 1 -14 6 -1 5 -5
12 -10 15 -4 3 -15 15 -23 26 -14 18 -14 19 1 7 13 -10 22 -9 45 3 16 8 35 15
42 15 20 0 14 -21 -8 -27 -37 -10 -16 -63 28 -70 9 -1 18 -7 20 -12 7 -22 41
-56 42 -42 0 7 -16 28 -35 47 -19 18 -35 38 -35 46 0 7 7 2 16 -10 8 -12 23
-22 32 -22 10 0 22 -13 29 -30 16 -43 39 -38 47 10 3 23 11 38 16 35 5 -3 6
10 3 31 -4 27 -3 35 5 30 8 -5 12 5 12 33 0 22 -5 43 -11 46 -13 8 -38 -23
-39 -47 0 -10 -4 -18 -9 -18 -13 0 -22 30 -16 51 5 14 1 16 -14 12 -11 -3 -23
-14 -26 -24 -4 -11 -10 -17 -15 -14 -11 7 14 68 29 73 14 5 14 57 1 83 -14 25
-50 25 -57 -1z"/>
<path d="M4314 1321 c-17 -17 -23 -33 -19 -48 4 -16 0 -23 -15 -28 -28 -9 -24
-36 11 -63 33 -27 36 -23 12 15 -17 25 -17 26 3 15 12 -7 26 -7 35 -1 7 5 26
9 40 9 15 0 38 9 52 20 14 11 32 20 41 20 9 0 16 8 16 18 0 10 6 24 13 31 10
11 9 13 -4 8 -9 -3 -29 1 -45 10 -16 8 -48 16 -72 18 -36 2 -47 -2 -68 -24z"/>
<path d="M3659 1302 c-3 -18 1 -80 9 -139 l14 -106 -37 -34 c-41 -38 -57 -34
-61 14 -2 16 -6 38 -10 51 -4 14 -2 22 5 22 17 0 9 62 -8 68 -10 3 -12 -1 -9
-16 6 -22 -7 -50 -18 -39 -4 4 -11 24 -15 44 -7 33 -8 31 -5 -17 4 -70 0 -83
-24 -70 -10 5 -26 7 -34 4 -18 -7 -22 -34 -5 -34 5 0 7 5 4 10 -3 6 1 10 10
10 9 0 13 -4 10 -10 -3 -6 1 -7 9 -4 12 5 16 0 16 -17 0 -19 2 -21 10 -9 7 11
10 5 10 -23 0 -42 36 -121 50 -112 16 10 12 0 -10 -25 -21 -25 -26 -45 -11
-54 5 -4 7 4 3 16 -4 16 -2 20 10 15 11 -4 18 2 23 16 6 20 7 19 16 -10 12
-42 23 -43 15 -1 -6 30 -5 31 8 13 9 -11 16 -26 16 -32 0 -7 4 -13 10 -13 6 0
6 8 1 23 -5 12 -15 44 -22 70 -10 39 -9 50 1 60 7 7 10 7 7 1 -7 -12 31 -94
43 -94 5 0 12 -9 15 -20 3 -11 11 -20 17 -20 5 0 8 6 5 14 -3 7 0 19 6 26 9 9
8 11 -7 8 -10 -1 -21 2 -23 9 -3 7 3 9 16 6 30 -8 37 21 12 56 l-21 29 24 -2
c13 0 23 -2 21 -4 -5 -6 57 -126 69 -134 18 -12 26 -9 20 7 -4 8 -1 15 4 15 6
0 12 -9 14 -20 2 -12 8 -21 13 -21 6 0 14 -7 18 -15 22 -38 79 6 101 78 18 62
6 92 -34 84 -23 -4 -30 -2 -30 9 0 9 -11 21 -25 27 -24 11 -35 38 -15 38 6 0
10 7 10 16 0 13 -11 15 -72 12 -68 -3 -71 -2 -73 20 -1 12 -4 25 -8 28 -3 3
-4 -15 -2 -40 3 -45 3 -45 -16 -23 -14 16 -19 18 -19 7 -1 -8 -6 -4 -11 10 -6
15 -6 26 -1 28 6 2 6 17 1 40 -5 20 -13 54 -18 74 -5 22 -5 36 0 32 5 -3 9 2
9 10 0 9 -4 16 -9 16 -5 0 -11 12 -13 28 -3 26 -4 26 -9 -6z"/>
<path d="M2238 1308 c8 -11 9 -30 2 -74 -5 -32 -7 -66 -5 -75 7 -20 59 -43 80
-36 8 4 17 2 20 -3 14 -23 20 -6 19 50 -1 54 -4 61 -34 87 -43 36 -99 71 -82
51z"/>
<path d="M4613 1313 c-7 -2 -13 -11 -13 -19 0 -8 -10 -14 -25 -14 -20 0 -27
-6 -32 -31 -4 -20 -10 -28 -19 -25 -8 3 -14 -1 -14 -9 0 -17 16 -20 25 -5 3 6
15 10 26 10 20 0 27 -34 9 -45 -5 -3 -10 -15 -10 -26 0 -10 -5 -28 -11 -38 -9
-14 -8 -27 7 -59 10 -23 21 -42 26 -42 4 0 11 18 14 40 4 22 11 43 15 46 5 3
9 14 9 25 0 12 10 23 26 29 20 8 24 14 18 33 -4 12 -12 25 -18 29 -7 4 -5 9 6
13 14 5 15 12 7 32 -6 17 -6 30 1 38 15 18 -17 31 -47 18z"/>
<path d="M10709 1300 c0 -8 -1 -34 -3 -57 -1 -23 1 -40 6 -37 4 3 5 -2 2 -10
-8 -21 -8 -21 -42 14 l-30 30 1 -36 c1 -38 -29 -71 -88 -95 -16 -7 -31 -13
-33 -14 -1 -2 2 -13 8 -27 9 -18 20 -25 41 -25 24 0 28 4 23 19 -4 13 1 25 13
33 23 18 34 19 27 1 -3 -7 2 -16 12 -20 17 -7 17 2 -2 49 -7 20 -7 20 15 1
l22 -20 -6 32 c-7 39 12 43 21 5 8 -33 23 -45 47 -37 9 3 17 1 17 -5 0 -6 7
-11 16 -11 13 0 15 6 8 28 -4 15 -8 36 -8 48 -1 12 -7 21 -16 20 -11 -1 -16
13 -20 51 -3 29 -11 58 -18 65 -9 9 -12 9 -13 -2z"/>
<path d="M4190 1153 c0 -5 6 -15 12 -21 10 -10 10 -15 1 -20 -6 -4 -15 -36
-19 -72 -4 -36 -10 -74 -14 -84 -6 -17 -8 -15 -18 13 -10 27 -16 32 -39 30
-16 -2 -35 1 -43 5 -8 5 -12 6 -8 1 4 -4 1 -14 -7 -22 -29 -28 -20 -153 9
-153 8 0 17 -8 19 -17 2 -10 3 -2 1 17 -2 19 -6 61 -9 93 -3 35 -1 57 5 57 5
0 10 -16 10 -35 0 -19 5 -35 10 -35 6 0 10 -19 10 -42 0 -25 7 -49 17 -60 22
-24 27 -117 7 -125 -20 -7 -17 -21 6 -33 17 -9 22 -7 32 15 13 29 32 34 23 6
-3 -11 -2 -22 3 -25 6 -3 12 4 15 15 3 12 10 18 16 14 6 -3 11 0 11 8 0 8 7
20 15 27 13 11 18 10 30 -6 14 -18 15 -18 35 6 11 14 20 35 20 47 0 12 6 23
13 26 17 6 -21 47 -42 46 -13 -1 -13 -2 2 -6 25 -6 21 -31 -5 -35 -15 -2 -28
-15 -37 -36 -15 -33 -46 -41 -46 -12 -1 8 -6 14 -13 13 -8 -2 -9 4 -2 23 6 14
10 38 10 54 0 16 5 32 10 35 6 3 10 18 10 33 0 25 -1 25 -16 6 -15 -18 -15
-18 -5 3 24 48 13 221 -15 244 -8 6 -14 7 -14 2z"/>
<path d="M3101 1133 c-5 -11 -5 -41 0 -77 6 -32 8 -64 6 -70 -2 -6 5 -19 14
-30 10 -10 16 -22 14 -26 -2 -4 9 -20 26 -36 17 -16 46 -50 65 -75 39 -54 69
-68 78 -36 3 12 0 27 -6 34 -6 7 -7 13 -2 13 4 0 -3 11 -16 25 -13 14 -28 25
-33 25 -6 0 0 -11 13 -25 l23 -24 -24 4 c-30 6 -74 54 -74 80 1 22 -30 49 -45
40 -6 -3 -7 1 -4 9 9 22 16 20 48 -13 23 -24 34 -29 57 -24 18 3 29 1 29 -6 0
-6 -5 -11 -12 -11 -6 0 -1 -11 12 -25 24 -26 42 -27 21 -1 -8 9 -8 15 -2 18
10 3 1 91 -15 140 -3 12 -2 18 3 15 12 -8 37 -143 28 -156 -3 -6 0 -19 7 -30
9 -15 9 -23 -1 -35 -9 -11 -10 -16 -2 -16 6 0 19 9 28 19 13 16 19 17 34 8 11
-7 19 -19 19 -27 0 -9 9 -16 20 -17 24 -2 37 15 17 23 -8 3 -18 21 -21 40 -4
19 -11 34 -16 34 -6 0 -10 7 -10 15 0 28 18 15 30 -20 6 -19 16 -35 20 -35 5
0 7 -6 4 -14 -3 -7 2 -16 12 -20 11 -4 15 -2 11 8 -4 10 0 14 14 13 11 -1 22
-11 25 -24 4 -13 10 -21 14 -18 5 3 13 -3 19 -12 6 -10 11 -13 11 -8 0 6 -4
15 -8 20 -16 18 -33 122 -26 162 5 32 3 40 -10 40 -9 0 -16 -4 -16 -8 0 -4 -3
-16 -6 -26 -5 -15 -4 -15 5 -3 9 13 11 11 11 -7 0 -28 -14 -36 -49 -28 -21 4
-28 11 -24 23 2 10 -7 28 -21 41 -14 14 -26 34 -27 45 0 21 -1 21 -8 1 -5 -12
-4 -23 3 -27 7 -5 5 -8 -6 -8 -9 0 -19 8 -21 18 -3 11 -5 7 -6 -10 0 -15 4
-30 10 -34 6 -3 9 -20 6 -38 -4 -25 1 -37 26 -63 17 -18 26 -33 19 -33 -7 0
-12 5 -12 10 0 6 -9 10 -21 10 -11 0 -17 5 -14 10 3 6 1 10 -5 10 -6 0 -10 15
-10 33 1 30 -32 165 -45 187 -4 6 -11 8 -16 5 -5 -4 -9 1 -9 9 0 9 -4 16 -9
16 -4 0 -11 -30 -15 -67 -6 -63 -19 -104 -29 -93 -10 12 -57 120 -57 132 0 15
-19 38 -32 38 -4 0 -11 -8 -17 -17z"/>
<path d="M4860 1146 c0 -2 20 -17 44 -32 25 -16 42 -32 40 -36 -3 -4 -1 -8 5
-8 11 0 57 -71 53 -83 -1 -5 1 -6 5 -4 5 3 14 -1 21 -9 23 -25 -14 -28 -56 -4
-69 39 -65 17 13 -64 41 -43 75 -81 75 -84 0 -3 -3 -2 -6 1 -8 8 -44 -10 -44
-22 0 -4 10 -13 23 -19 12 -6 16 -11 10 -11 -7 -1 -13 -8 -13 -17 0 -9 5 -12
12 -8 7 4 8 3 4 -5 -4 -6 -11 -9 -16 -6 -5 3 -20 -6 -35 -19 -18 -17 -22 -26
-13 -29 11 -4 11 -6 0 -6 -7 -1 -21 12 -30 29 -19 33 -37 40 -27 11 5 -16 2
-18 -17 -14 -13 3 -36 15 -53 27 -59 43 -104 65 -111 55 -3 -6 -4 -11 -3 -12
2 -1 18 -12 34 -23 17 -12 41 -24 53 -28 12 -4 33 -17 45 -29 23 -21 23 -23 7
-65 l-16 -43 -19 21 c-11 12 -27 19 -37 17 -14 -4 -19 3 -24 34 -4 21 -10 39
-15 39 -5 0 -6 6 -4 13 6 17 -26 56 -32 40 -3 -8 -14 -11 -28 -7 -22 6 -25 0
-16 -34 1 -1 10 2 21 8 14 7 20 7 20 0 0 -5 -7 -10 -15 -10 -8 0 -15 -7 -15
-15 0 -14 -3 -13 -24 2 -18 13 -22 22 -15 35 7 13 3 18 -19 23 -61 13 -150 -4
-137 -26 4 -5 -5 -9 -18 -9 -27 0 -67 -38 -67 -63 0 -9 -5 -17 -11 -17 -6 0
-8 9 -4 23 5 18 4 19 -5 5 -5 -9 -9 -27 -8 -40 2 -15 -2 -22 -11 -20 -8 2 -18
-3 -23 -10 -6 -10 -10 -10 -18 2 -8 13 -10 13 -10 -2 0 -11 10 -20 25 -24 14
-3 25 -12 25 -20 0 -8 6 -14 14 -14 7 0 19 -7 26 -15 14 -17 30 -11 30 11 0 8
-4 13 -9 10 -11 -7 -36 22 -27 31 4 4 12 1 17 -7 8 -11 9 -8 5 13 -6 25 -5 26
13 15 10 -6 17 -18 14 -25 -9 -22 16 -44 37 -33 13 7 21 6 26 -2 4 -6 3 -8 -3
-5 -13 8 -51 -19 -41 -29 4 -4 15 -1 25 7 9 8 14 9 10 2 -5 -7 0 -9 15 -5 16
4 19 2 13 -8 -5 -9 -4 -11 3 -6 7 4 12 0 13 -11 0 -10 3 -13 5 -7 3 7 -5 29
-16 49 -12 21 -18 40 -14 44 4 3 9 0 11 -7 3 -7 11 -19 19 -26 8 -8 14 -19 14
-24 0 -5 7 -15 15 -22 11 -9 15 -9 15 -1 0 7 12 17 28 24 35 15 34 33 -3 64
l-30 25 33 -17 c19 -9 36 -14 39 -11 3 3 18 -1 34 -10 16 -8 32 -14 36 -13 4
0 9 -4 11 -10 2 -6 -2 -11 -9 -11 -7 0 4 -16 24 -35 20 -19 37 -39 37 -44 0
-12 29 -35 36 -28 3 3 1 14 -5 26 -7 12 -7 22 -2 26 5 3 12 19 16 35 4 17 10
30 14 30 5 0 14 27 20 61 13 66 36 77 36 17 0 -20 3 -40 8 -44 4 -4 7 -29 7
-54 0 -33 5 -52 17 -61 15 -12 16 -12 10 3 -10 28 14 33 33 7 16 -20 21 -22
44 -11 24 11 26 16 26 84 0 50 3 68 10 58 5 -8 7 -25 4 -37 -8 -29 5 -70 16
-52 11 17 41 -6 33 -27 -7 -20 11 -17 30 4 10 10 17 34 17 53 0 26 3 30 10 19
7 -11 10 -6 10 20 0 26 3 31 10 20 5 -8 12 -11 15 -8 4 4 0 17 -9 30 -9 12
-16 28 -16 35 0 21 45 -12 59 -43 16 -36 30 -21 24 25 -4 32 -2 41 18 55 l23
16 -22 0 c-19 0 -22 4 -17 21 5 15 2 22 -14 26 -26 7 -27 15 -1 31 11 7 20 18
20 25 0 8 -4 7 -10 -3 -9 -13 -10 -13 -11 0 -1 8 -1 18 0 23 0 4 -6 7 -14 7
-20 0 -19 17 3 29 15 9 15 10 -4 11 -16 0 -21 6 -21 26 0 26 -20 47 -35 38 -4
-3 -8 0 -8 5 0 6 5 11 10 11 17 0 11 40 -6 47 -9 3 -25 1 -35 -6 -11 -6 -19
-7 -19 -2 0 6 8 14 18 20 15 9 15 11 2 24 -8 8 -26 18 -40 21 -23 6 -23 6 -8
-7 21 -17 14 -27 -19 -27 -24 0 -32 -15 -11 -22 9 -3 9 -8 -2 -19 -12 -14 -18
-11 -48 17 -19 18 -31 37 -27 43 3 6 3 10 -2 9 -5 -2 -22 10 -38 25 -28 26
-105 73 -105 63z"/>
<path d="M4480 1117 c0 -13 -4 -27 -9 -32 -4 -6 -11 -25 -14 -42 -5 -25 -3
-33 8 -33 8 0 15 5 15 12 0 11 29 -21 30 -32 0 -10 -39 -9 -45 1 -4 5 -15 9
-27 9 -17 0 -19 -4 -12 -27 4 -16 7 -43 7 -60 -1 -25 3 -33 15 -34 11 0 8 -4
-8 -10 -32 -13 -37 -23 -45 -81 -8 -53 3 -85 16 -50 5 12 16 22 26 22 16 1 16
2 -2 16 -19 16 -19 16 5 8 24 -7 121 -7 128 1 11 10 -13 25 -41 25 -18 0 -27
4 -20 8 6 4 13 25 15 46 l3 38 24 -19 24 -20 -22 -20 -22 -20 32 -7 c17 -3 43
-6 56 -6 22 0 24 2 13 15 -8 9 -9 15 -2 15 6 0 14 -5 17 -10 4 -6 23 -19 44
-29 l37 -19 11 36 c12 40 11 63 -1 101 -7 20 -10 22 -17 9 -6 -10 -17 -14 -29
-11 -20 5 -20 5 0 23 19 17 19 17 -10 16 -21 -1 -30 -6 -30 -18 0 -10 -7 -18
-15 -18 -8 0 -15 -4 -15 -10 0 -17 -25 -11 -43 10 -40 47 -89 131 -89 152 0
13 3 33 7 46 5 14 3 22 -4 22 -6 0 -11 -10 -11 -23z"/>
<path d="M5407 1023 c-15 -2 -25 -7 -23 -11 2 -4 -7 -8 -21 -8 -35 -3 -38 -10
-15 -39 11 -14 22 -21 24 -15 1 5 17 14 33 19 29 8 30 7 31 -23 1 -17 -1 -23
-3 -13 -4 17 -24 23 -36 10 -4 -3 -2 -12 4 -20 9 -10 8 -13 0 -13 -7 0 -10 -4
-7 -9 3 -5 -1 -11 -9 -15 -18 -7 -20 -27 -2 -21 6 2 26 6 44 9 29 4 90 36 69
36 -5 0 3 9 18 21 28 22 27 42 -2 33 -14 -5 -13 -2 3 11 20 17 20 17 -5 10
-14 -4 -29 -14 -33 -21 -11 -19 -31 -18 -23 1 3 8 -2 18 -11 23 -11 7 -12 11
-4 16 7 4 18 3 26 -4 8 -7 15 -7 19 -1 6 10 -25 32 -41 30 -4 -1 -20 -4 -36
-6z"/>
<path d="M11843 1023 c-7 -3 -13 -13 -13 -23 0 -28 -18 -34 -23 -8 -2 13 -5
-4 -6 -37 -1 -33 -3 -78 -6 -100 -2 -22 -2 -32 1 -22 6 18 24 24 24 8 0 -5
-12 -24 -27 -41 -26 -31 -27 -32 -35 -11 -4 11 -15 21 -24 21 -11 0 -14 -5
-10 -16 3 -9 6 -21 6 -27 0 -7 4 -6 10 3 8 12 10 9 10 -13 0 -38 -40 -107 -63
-107 -17 0 -17 1 -2 16 19 20 8 36 -28 40 -18 2 -23 -3 -23 -18 1 -12 -6 -23
-14 -26 -12 -4 -13 -3 -2 10 7 9 10 23 6 32 -8 21 15 76 31 76 8 0 16 6 18 13
3 6 4 -4 2 -23 -1 -19 -8 -36 -15 -38 -6 -2 1 -10 15 -18 32 -17 43 -18 29 -4
-6 6 -9 31 -6 57 2 28 0 48 -7 53 -9 5 -9 14 -1 36 12 32 9 29 -39 -33 -18
-24 -37 -43 -43 -43 -6 0 2 16 16 35 21 27 26 44 23 73 l-4 37 -1 -38 c-1 -23
-12 -51 -27 -71 -14 -18 -23 -35 -20 -37 2 -3 -7 -23 -20 -44 -21 -34 -24 -37
-25 -17 0 13 -4 20 -10 17 -22 -14 -8 16 15 31 14 9 25 21 25 27 0 6 -14 -2
-30 -18 -17 -16 -28 -35 -25 -43 5 -14 -15 -42 -86 -121 -22 -24 -37 -46 -33
-50 4 -3 9 0 11 7 3 6 9 12 14 12 6 0 5 -8 -1 -20 -9 -17 -8 -20 10 -20 13 0
20 -7 20 -19 0 -17 6 -19 40 -16 23 2 38 0 35 -6 -4 -5 -13 -9 -22 -9 -15 0
-15 -2 0 -67 2 -7 7 -16 12 -20 4 -4 5 -2 0 6 -6 11 -3 13 14 8 14 -3 31 3 52
20 29 25 29 26 12 45 -15 17 -15 21 -3 28 8 6 20 10 25 10 6 0 3 -5 -5 -10
-13 -8 -13 -11 3 -27 14 -14 17 -14 17 -3 0 13 2 13 10 0 6 -10 10 -11 10 -3
0 8 11 11 30 9 18 -2 30 1 30 8 0 14 36 46 51 46 5 0 8 4 5 8 -2 4 -1 14 5 22
5 10 9 11 9 3 0 -7 7 -10 15 -7 8 4 15 10 15 16 0 5 -5 6 -12 2 -7 -4 -8 -3
-4 4 4 6 14 8 22 5 11 -4 12 -9 5 -16 -18 -18 -13 -29 9 -22 12 4 20 2 20 -4
0 -8 6 -7 19 1 11 7 18 16 15 20 -3 4 0 16 6 25 11 17 11 16 5 -1 -3 -11 0
-23 7 -27 9 -6 7 -10 -7 -15 -36 -13 -52 -33 -47 -59 2 -14 8 -22 13 -19 5 3
9 -9 9 -25 0 -20 -5 -30 -12 -29 -7 2 -12 -3 -10 -9 5 -26 -30 -2 -40 27 -3
10 -6 8 -10 -8 -4 -12 -3 -20 1 -17 11 6 35 -41 27 -53 -3 -5 1 -15 9 -22 7
-6 19 -36 26 -66 7 -30 16 -54 21 -54 4 0 5 -17 2 -39 -8 -50 12 -65 22 -16 3
19 10 35 15 35 15 0 10 38 -6 44 -8 3 -14 13 -13 23 3 35 -2 53 -14 53 -7 0
-18 10 -23 23 -10 20 -7 25 32 45 24 12 43 18 43 13 0 -5 -11 -12 -25 -15 -15
-4 -25 -13 -25 -24 0 -15 2 -15 10 -2 7 11 12 12 18 4 4 -7 21 -9 40 -7 28 5
32 9 32 35 0 17 -4 27 -10 23 -5 -3 -10 -1 -10 4 0 6 4 11 9 11 5 0 9 25 9 55
-1 53 -2 55 -19 39 -15 -14 -19 -14 -19 -3 0 8 -3 10 -8 4 -17 -23 -52 -36
-70 -25 -14 9 -14 10 6 5 12 -4 22 -2 22 4 0 9 24 21 43 21 4 0 17 10 28 21
20 20 21 28 15 108 -4 47 -12 89 -18 92 -5 4 -3 9 6 12 9 4 16 17 16 29 -1 23
-1 23 -16 3 -14 -19 -16 -19 -25 -2 -6 9 -15 17 -22 17 -9 0 -9 -2 0 -8 8 -5
7 -12 -4 -27 -14 -19 -14 -18 -9 15 3 20 0 37 -6 41 -7 4 -12 30 -13 58 -1 28
-4 54 -8 57 -4 4 -7 2 -7 -4 0 -7 -6 -12 -14 -12 -8 0 -16 -3 -19 -7 -2 -5 -2
-2 0 5 18 74 14 105 -14 95z"/>
<path d="M2477 924 c5 -14 3 -15 -14 -5 -31 16 -55 -15 -47 -60 8 -48 33 -111
48 -123 18 -15 28 -73 14 -82 -7 -5 -8 -3 -3 6 5 9 4 11 -3 6 -17 -10 -15 -27
4 -40 9 -7 17 -31 18 -58 2 -25 7 -51 10 -57 10 -16 26 -14 26 4 0 8 -4 15 -9
15 -5 0 -11 9 -14 20 -3 11 -1 20 3 20 4 0 7 33 6 74 -1 48 3 77 11 85 10 9
13 8 13 -4 0 -8 8 -20 18 -26 18 -11 18 -13 1 -48 -22 -47 -27 -83 -11 -88 6
-3 12 0 12 7 0 6 4 9 9 5 6 -3 24 8 41 25 20 19 38 29 47 25 13 -4 14 -3 3 10
-7 8 -16 12 -21 9 -5 -3 -13 5 -18 18 -5 13 -16 30 -25 37 -9 7 -13 18 -10 23
4 6 1 14 -6 18 -9 6 -7 11 9 20 22 11 22 12 -24 56 -26 24 -53 44 -61 44 -8 0
-13 8 -12 18 3 35 -2 62 -12 62 -5 0 -7 -7 -3 -16z"/>
<path d="M10800 868 c0 -15 -4 -30 -10 -33 -6 -3 -10 4 -10 16 0 15 -3 20 -10
13 -13 -13 11 -66 27 -59 18 6 5 -54 -19 -90 -12 -16 -15 -24 -7 -17 23 21 30
13 12 -15 -10 -14 -17 -40 -16 -57 2 -29 2 -30 -6 -6 -8 21 -9 22 -10 5 -1
-11 -10 -26 -21 -33 -25 -15 -26 -2 -3 41 9 18 16 42 14 55 -1 12 3 22 9 22 7
0 9 8 5 20 -4 12 -1 27 5 35 9 11 7 14 -10 12 -19 -1 -21 -6 -17 -34 3 -18 1
-35 -4 -38 -5 -4 -10 -16 -10 -28 -1 -12 -7 5 -14 38 -7 33 -13 62 -14 65 -1
3 -8 -8 -16 -23 -14 -28 -11 -82 6 -93 5 -3 9 -11 9 -17 0 -7 -4 -6 -10 3 -7
11 -10 11 -10 2 0 -7 -4 -10 -10 -7 -5 3 -10 1 -10 -4 0 -6 5 -11 11 -11 6 0
9 -7 6 -15 -4 -8 -2 -17 4 -21 6 -4 5 -12 -3 -22 -11 -13 -11 -14 1 -7 10 5
12 4 7 -3 -13 -21 -25 -12 -32 23 -3 19 -10 38 -16 41 -5 3 -6 -5 -3 -19 11
-43 -12 -39 -77 15 -50 42 -58 46 -41 22 12 -17 29 -37 38 -44 8 -7 15 -22 15
-33 0 -18 -4 -16 -32 14 -18 20 -27 28 -20 19 19 -26 14 -32 -12 -14 -14 8
-29 16 -33 17 -4 1 -7 8 -7 15 2 16 -11 16 -24 -1 -8 -10 -6 -16 9 -25 11 -7
24 -10 29 -7 6 4 10 1 10 -5 0 -6 5 -8 10 -5 6 3 13 -1 16 -10 10 -24 46 -35
62 -19 7 8 10 18 7 24 -3 5 -1 10 4 10 6 0 11 -5 11 -11 0 -8 -17 -47 -25 -57
-1 -1 -39 16 -83 38 -79 40 -81 42 -71 68 l9 27 -20 -23 c-15 -18 -17 -28 -10
-43 8 -14 7 -17 -4 -13 -8 3 -17 1 -20 -4 -8 -14 4 -43 15 -36 5 3 9 2 9 -3 2
-31 90 -83 90 -53 0 5 7 10 15 10 17 0 16 -23 -2 -30 -8 -3 -9 -10 -4 -19 7
-11 11 -9 21 9 9 18 9 28 -1 46 -17 32 -7 39 28 22 26 -13 31 -13 44 1 7 8 17
24 21 35 5 19 6 19 7 2 1 -13 6 -16 19 -12 15 5 15 5 1 -6 -9 -7 -14 -20 -12
-28 4 -12 2 -12 -5 -2 -7 10 -16 5 -40 -19 -18 -18 -32 -27 -32 -21 0 7 5 12
10 12 6 0 10 5 10 12 0 8 -5 7 -15 -3 -22 -21 -26 -71 -8 -94 14 -19 15 -18
11 13 -3 17 -1 32 4 32 4 0 8 -7 8 -15 0 -19 34 -19 50 0 6 8 8 20 4 26 -4 8
-3 9 4 5 7 -4 12 -2 12 3 0 6 -6 11 -12 11 -9 0 -9 3 -2 8 6 4 13 15 17 25 10
27 28 21 21 -8 -6 -24 14 -85 28 -85 5 0 8 -7 8 -15 0 -8 4 -15 9 -15 11 0 26
39 23 58 -2 6 4 12 13 12 9 0 18 12 22 31 3 17 13 33 21 36 12 5 12 8 -4 20
-10 7 -13 13 -6 13 6 0 9 7 5 16 -4 10 1 22 12 30 13 9 16 20 11 39 -4 15 -2
43 4 61 10 28 14 33 26 23 9 -7 14 -8 14 -1 0 6 -5 14 -10 17 -8 5 -7 11 1 21
10 12 14 12 20 2 6 -9 9 -3 9 16 l0 29 -19 -21 c-10 -12 -21 -22 -24 -22 -3 0
-3 24 0 54 3 31 1 61 -5 72 -10 17 -11 16 -12 -8z"/>
<path d="M10084 746 c-3 -8 -15 -11 -30 -8 -20 4 -24 0 -24 -19 0 -19 -2 -21
-10 -9 -8 13 -10 12 -10 -3 0 -10 -4 -16 -9 -12 -11 6 1 -41 17 -71 35 -62 43
-93 32 -114 -6 -12 -9 -28 -6 -36 3 -8 1 -14 -3 -14 -15 0 -21 31 -11 51 6 11
8 24 5 29 -3 6 -8 19 -10 31 -2 12 -12 28 -22 36 -10 8 -12 12 -6 8 9 -4 11
-1 7 10 -5 13 -9 12 -25 -7 -10 -13 -23 -29 -29 -35 -6 -7 -8 -13 -5 -13 3 0
1 -9 -5 -21 -9 -15 -8 -24 2 -37 11 -14 11 -15 -6 -9 -15 6 -17 5 -7 -7 6 -7
9 -20 6 -28 -4 -9 0 -22 8 -29 7 -8 12 -20 10 -26 -3 -8 6 -12 26 -10 l30 2
-21 22 c-12 13 -19 26 -15 29 9 9 58 -48 53 -62 -3 -7 2 -15 10 -18 8 -3 14
-17 14 -31 0 -32 16 -33 24 -1 3 13 9 32 13 43 6 16 5 16 -11 4 -16 -13 -16
-12 -5 15 7 16 17 35 23 42 7 9 5 16 -4 22 -24 15 29 51 68 46 30 -4 32 -2 26
18 -4 11 -13 34 -21 50 -14 27 -14 29 3 22 11 -3 7 4 -11 19 -16 14 -31 21
-33 15 -2 -5 -11 -6 -19 -3 -13 5 -15 2 -10 -12 6 -14 5 -16 -7 -6 -11 9 -15
8 -20 -4 -3 -8 -11 -15 -17 -15 -8 0 -8 4 1 15 6 8 9 18 6 23 -3 6 2 16 11 23
15 12 16 12 10 -3 -8 -22 6 -23 27 -2 20 20 20 40 1 48 -8 3 -15 11 -15 17 0
8 5 7 17 -2 15 -12 16 -12 10 4 -4 10 -7 23 -7 28 0 14 -20 11 -26 -5z"/>
<path d="M9242 720 c-7 -12 -8 -20 -2 -20 6 0 8 -16 3 -42 -4 -24 -7 -51 -7
-60 0 -21 -7 -23 -24 -6 -9 9 -15 8 -26 -7 -12 -17 -16 -18 -32 -5 -10 8 -15
10 -11 3 5 -7 -4 -21 -22 -34 -36 -27 -32 -39 15 -39 22 0 36 -5 39 -15 17
-54 15 -52 26 -32 6 9 7 22 3 29 -4 7 -3 8 4 4 7 -4 12 -15 12 -24 0 -21 27
-62 41 -62 6 0 7 6 4 13 -4 6 1 3 9 -7 16 -20 16 -20 36 1 22 24 31 84 13 90
-6 2 -9 12 -6 23 6 22 -15 92 -26 86 -20 -13 -34 15 -32 68 0 31 0 56 -2 56
-1 0 -8 -9 -15 -20z"/>
<path d="M3564 565 c-11 -23 -15 -53 -12 -92 2 -39 -1 -58 -9 -58 -20 0 -25
-13 -18 -44 6 -31 23 -36 53 -18 11 8 16 2 13 -15 0 -5 4 -8 11 -8 9 0 9 -3 0
-12 -7 -7 -12 -21 -12 -31 0 -11 -10 -29 -23 -41 -12 -11 -36 -42 -52 -68 -17
-27 -33 -48 -37 -48 -4 0 -15 11 -24 25 -9 14 -23 25 -31 25 -15 0 -10 35 8
55 12 12 11 82 -1 90 -6 3 -8 16 -4 29 6 24 -17 50 -53 58 -19 5 -21 3 -12
-19 6 -16 6 -22 -1 -18 -6 3 -10 1 -10 -4 0 -6 4 -11 9 -11 8 0 31 -52 31 -71
0 -5 -16 1 -35 12 -23 14 -35 29 -35 42 0 12 -16 39 -35 59 -22 23 -35 47 -35
63 0 21 -4 26 -16 21 -9 -3 -20 -6 -25 -6 -5 0 -9 -7 -9 -15 0 -8 -9 -15 -20
-15 -13 0 -18 5 -14 15 3 8 0 31 -7 52 -7 21 -14 32 -17 25 -3 -10 -11 -5 -24
15 -12 17 -17 20 -13 8 4 -11 8 -32 9 -47 2 -16 3 -36 4 -46 1 -11 12 -24 25
-29 21 -11 21 -12 -15 -27 -41 -18 -50 -45 -18 -53 24 -6 24 -5 5 -49 -13 -31
-13 -36 1 -41 12 -4 10 -12 -10 -49 -21 -38 -23 -48 -14 -84 11 -42 15 -45 36
-31 10 6 11 17 1 54 -13 53 -6 97 16 97 8 0 15 -5 15 -11 0 -8 4 -8 14 0 16
14 9 51 -10 51 -11 0 -13 14 -5 63 0 4 12 7 26 7 27 0 33 18 13 38 -6 6 -9 14
-6 18 9 9 88 -71 88 -89 0 -9 9 -21 20 -27 11 -6 20 -7 20 -3 0 4 11 -14 24
-42 13 -27 33 -60 45 -72 12 -13 21 -35 21 -54 0 -17 8 -43 19 -57 10 -15 21
-39 25 -55 6 -24 11 -27 45 -27 36 0 39 2 45 33 4 23 15 38 31 45 14 6 25 16
25 21 0 5 12 3 28 -5 26 -13 27 -13 36 11 6 14 15 25 22 25 6 0 17 7 24 15 7
8 16 13 20 10 8 -5 21 86 13 98 -2 4 -14 0 -26 -8 -25 -17 -57 -20 -57 -5 0
33 73 69 97 48 8 -6 17 -8 21 -4 9 10 9 66 0 66 -5 0 -8 8 -8 18 0 14 3 13 18
-6 10 -13 25 -23 33 -21 8 1 22 -1 32 -6 26 -11 28 -4 18 49 -14 75 -96 133
-90 63 8 -93 -69 -64 -95 36 -3 15 -11 27 -16 27 -6 0 -9 -3 -9 -7 5 -31 -5
-64 -25 -87 l-23 -28 -8 29 c-6 26 -15 111 -17 161 0 30 -4 28 -24 -13z"/>
<path d="M5437 586 c-4 -9 -2 -27 5 -39 12 -22 13 -76 2 -110 -4 -14 -3 -17 6
-12 9 5 10 2 6 -13 -4 -11 -2 -23 4 -27 5 -3 10 2 10 12 1 15 5 13 25 -10 14
-15 25 -36 25 -45 0 -9 7 -25 14 -35 28 -37 70 17 47 61 -6 11 -16 43 -22 71
-6 28 -14 51 -18 51 -3 0 -15 -10 -25 -21 -11 -14 -21 -18 -27 -12 -13 13 -2
58 17 74 11 9 14 7 15 -12 0 -13 3 -18 6 -11 10 26 -7 80 -27 85 -11 3 -20 1
-20 -4 0 -13 -28 -11 -32 3 -3 7 -7 5 -11 -6z"/>
<path d="M2340 417 c0 -7 -6 -22 -14 -32 -12 -16 -16 -17 -30 -6 -18 15 -46 8
-46 -11 1 -28 48 -107 84 -141 20 -20 38 -36 39 -36 1 0 10 -3 19 -6 10 -4 23
-5 30 -3 7 3 22 -16 34 -43 22 -47 23 -47 58 -39 20 4 43 14 51 20 8 7 15 9
16 4 8 -90 49 -129 49 -48 0 19 5 34 10 34 6 0 10 7 10 15 0 13 -4 14 -21 5
-25 -14 -41 -2 -59 40 -10 24 -10 33 0 45 11 13 20 11 69 -17 31 -17 58 -36
59 -40 7 -17 64 -40 74 -30 18 18 4 47 -22 48 -44 1 -50 4 -50 22 0 16 -44 72
-56 72 -3 0 -18 -7 -35 -15 -33 -18 -49 -13 -49 14 0 30 28 47 52 32 24 -15
52 3 45 30 -3 10 0 20 5 21 6 2 3 11 -6 21 -10 9 -14 22 -10 28 7 12 -12 29
-34 29 -9 0 -10 -5 -2 -19 5 -11 10 -27 10 -35 0 -24 -25 -19 -37 7 l-11 22
-10 -25 c-5 -14 -17 -32 -26 -40 -15 -12 -21 -9 -52 22 -53 55 -144 90 -144
55z"/>
<path d="M2925 406 c-11 -13 -21 -33 -22 -45 -2 -17 3 -21 26 -21 20 0 31 6
34 18 3 9 5 3 6 -14 0 -17 12 -48 26 -68 27 -40 32 -65 13 -67 -43 -5 -138 -3
-138 4 0 4 -6 7 -14 7 -17 0 -25 -39 -15 -68 10 -28 29 -29 29 -2 0 31 48 27
56 -5 3 -13 13 -30 21 -37 13 -10 18 -9 32 7 9 11 26 25 36 31 14 8 20 23 21
53 1 22 5 49 10 59 4 9 8 38 9 64 1 38 -2 49 -17 54 -10 3 -18 14 -18 24 0 26
-17 34 -29 13 -9 -16 -11 -16 -28 -1 -17 16 -19 15 -38 -6z"/>
<path d="M1147 374 c-17 -23 -17 -24 2 -24 22 0 36 -16 22 -24 -5 -4 -11 -1
-13 5 -2 7 -9 10 -15 8 -8 -3 -6 -16 7 -44 10 -22 16 -43 13 -48 -3 -5 4 -18
15 -30 44 -49 55 -101 23 -112 -24 -7 -30 -24 -24 -58 4 -17 12 -27 23 -27 10
0 20 -5 22 -11 2 -6 13 -9 23 -6 19 5 19 5 -2 12 -26 8 -27 12 -12 75 12 51 4
110 -14 110 -8 0 -11 15 -9 45 4 40 7 46 26 43 16 -2 22 3 24 25 3 22 -1 27
-17 27 -12 0 -21 4 -21 9 0 5 -12 18 -27 29 l-28 20 -18 -24z"/>
<path d="M3230 295 c0 -43 -23 -90 -50 -105 -23 -12 -25 -37 -6 -62 19 -26 32
-22 57 15 31 43 42 49 55 32 14 -19 43 -19 50 -2 5 15 -83 157 -97 157 -5 0
-9 -16 -9 -35z"/>
<path d="M1960 236 c-19 -8 -118 -70 -149 -93 -2 -1 1 -8 7 -15 5 -7 13 -30
17 -50 6 -31 12 -38 30 -38 24 0 35 17 35 54 0 13 10 36 22 51 22 28 22 28 30
6 5 -14 15 -21 25 -19 14 2 19 15 21 52 4 57 -4 67 -38 52z"/>
<path d="M1644 213 c17 -58 17 -89 -1 -109 -66 -74 -55 -104 39 -104 46 0 58
17 28 40 l-23 18 22 12 c12 6 20 18 17 25 -2 7 2 21 9 32 8 10 15 14 15 10 0
-18 40 15 40 34 0 16 -4 19 -20 14 -13 -4 -31 2 -53 19 -40 31 -81 35 -73 9z"/>
<path d="M970 140 c-13 -8 -12 -12 7 -25 12 -8 21 -24 20 -34 0 -10 10 -32 23
-49 21 -27 31 -31 65 -29 l40 2 -3 55 c-2 30 -8 60 -13 66 -13 15 -69 24 -69
10 0 -6 -5 -5 -12 2 -14 14 -37 15 -58 2z"/>
</g>
</svg>
